<mxfile host="Electron" modified="2024-02-01T00:40:50.459Z" agent="Mozilla/5.0 (X11; Linux x86_64) AppleWebKit/537.36 (KHTML, like Gecko) draw.io/23.0.2 Chrome/120.0.6099.109 Electron/28.1.0 Safari/537.36" etag="MZlsOL5kkIVCmU2R5ESu" version="23.0.2" type="device">
  <diagram id="Ih9G8fX6a8J2JXn4JkDf" name="Page-1">
    <mxGraphModel dx="2966" dy="4248" grid="1" gridSize="10" guides="1" tooltips="1" connect="1" arrows="1" fold="1" page="0" pageScale="1" pageWidth="850" pageHeight="1100" math="1" shadow="0">
      <root>
        <mxCell id="0" />
        <mxCell id="1" parent="0" />
        <mxCell id="30" value="$$V_A(t)$$" style="edgeStyle=orthogonalEdgeStyle;html=1;elbow=vertical;entryX=0;entryY=0.75;entryDx=0;entryDy=0;" parent="1" source="18" target="19" edge="1">
          <mxGeometry y="20" relative="1" as="geometry">
            <mxPoint as="offset" />
          </mxGeometry>
        </mxCell>
        <mxCell id="32" value="$$I_{I, ESC}(t)$$" style="edgeStyle=orthogonalEdgeStyle;html=1;exitX=1;exitY=0.75;exitDx=0;exitDy=0;elbow=vertical;entryX=0.5;entryY=1;entryDx=0;entryDy=0;" parent="1" source="18" target="38" edge="1">
          <mxGeometry x="0.9259" y="-29" relative="1" as="geometry">
            <mxPoint x="-1010" y="1150" as="targetPoint" />
            <Array as="points">
              <mxPoint x="-630" y="1120" />
              <mxPoint x="-630" y="1230" />
              <mxPoint x="-1030" y="1230" />
              <mxPoint x="-1030" y="1105" />
            </Array>
            <mxPoint as="offset" />
          </mxGeometry>
        </mxCell>
        <mxCell id="18" value="ESC" style="rounded=0;whiteSpace=wrap;html=1;" parent="1" vertex="1">
          <mxGeometry x="-750" y="1030" width="80" height="120" as="geometry" />
        </mxCell>
        <mxCell id="22" value="$$W_m(t)$$" style="edgeStyle=none;html=1;exitX=1;exitY=0.25;exitDx=0;exitDy=0;entryX=0;entryY=0.25;entryDx=0;entryDy=0;" parent="1" source="19" target="58" edge="1">
          <mxGeometry y="20" relative="1" as="geometry">
            <mxPoint x="-460" y="1060" as="targetPoint" />
            <mxPoint as="offset" />
          </mxGeometry>
        </mxCell>
        <mxCell id="31" value="$$I_{a}(t)$$" style="edgeStyle=orthogonalEdgeStyle;html=1;exitX=1;exitY=0.75;exitDx=0;exitDy=0;entryX=0;entryY=0.75;entryDx=0;entryDy=0;elbow=vertical;" parent="1" source="19" target="18" edge="1">
          <mxGeometry x="0.8462" y="20" relative="1" as="geometry">
            <Array as="points">
              <mxPoint x="-470" y="1090" />
              <mxPoint x="-470" y="1190" />
              <mxPoint x="-790" y="1190" />
              <mxPoint x="-790" y="1120" />
            </Array>
            <mxPoint as="offset" />
          </mxGeometry>
        </mxCell>
        <mxCell id="19" value="Motor" style="rounded=0;whiteSpace=wrap;html=1;" parent="1" vertex="1">
          <mxGeometry x="-590" y="1030" width="80" height="80" as="geometry" />
        </mxCell>
        <mxCell id="24" value="$$T_p(t)$$" style="edgeStyle=orthogonalEdgeStyle;html=1;exitX=1;exitY=0.75;exitDx=0;exitDy=0;entryX=0;entryY=0.75;entryDx=0;entryDy=0;elbow=vertical;" parent="1" source="21" target="58" edge="1">
          <mxGeometry x="-0.7692" y="-20" relative="1" as="geometry">
            <Array as="points">
              <mxPoint x="-110" y="1090" />
              <mxPoint x="-110" y="1150" />
              <mxPoint x="-430" y="1150" />
              <mxPoint x="-430" y="1090" />
            </Array>
            <mxPoint as="offset" />
          </mxGeometry>
        </mxCell>
        <mxCell id="89" value="$$V_{H}(t)$$" style="edgeStyle=none;html=1;exitX=1;exitY=0.5;exitDx=0;exitDy=0;" parent="1" source="21" edge="1">
          <mxGeometry x="1" y="20" relative="1" as="geometry">
            <mxPoint x="-40" y="1060" as="sourcePoint" />
            <mxPoint x="-110" y="1070" as="targetPoint" />
            <mxPoint x="20" y="20" as="offset" />
          </mxGeometry>
        </mxCell>
        <mxCell id="21" value="Propeller" style="rounded=0;whiteSpace=wrap;html=1;" parent="1" vertex="1">
          <mxGeometry x="-230" y="1030" width="80" height="80" as="geometry" />
        </mxCell>
        <mxCell id="29" value="$$V_{BAT}(t)$$" style="edgeStyle=orthogonalEdgeStyle;html=1;exitX=1;exitY=0.5;exitDx=0;exitDy=0;elbow=vertical;entryX=0;entryY=0.5;entryDx=0;entryDy=0;" parent="1" source="34" target="18" edge="1">
          <mxGeometry x="0.5" y="20" relative="1" as="geometry">
            <mxPoint x="-870" y="1060" as="sourcePoint" />
            <Array as="points">
              <mxPoint x="-890" y="1090" />
              <mxPoint x="-890" y="1090" />
            </Array>
            <mxPoint as="offset" />
          </mxGeometry>
        </mxCell>
        <mxCell id="33" value="$$D(t)$$" style="endArrow=classic;html=1;elbow=vertical;entryX=0.5;entryY=0;entryDx=0;entryDy=0;" parent="1" target="18" edge="1">
          <mxGeometry y="20" width="50" height="50" relative="1" as="geometry">
            <mxPoint x="-710" y="990" as="sourcePoint" />
            <mxPoint x="-750" y="940" as="targetPoint" />
            <mxPoint as="offset" />
          </mxGeometry>
        </mxCell>
        <mxCell id="36" style="edgeStyle=orthogonalEdgeStyle;html=1;exitX=1;exitY=0.5;exitDx=0;exitDy=0;entryX=0;entryY=0.25;entryDx=0;entryDy=0;elbow=vertical;" parent="1" source="34" target="35" edge="1">
          <mxGeometry relative="1" as="geometry">
            <Array as="points">
              <mxPoint x="-830" y="1090" />
              <mxPoint x="-830" y="1010" />
              <mxPoint x="-1230" y="1010" />
              <mxPoint x="-1230" y="1090" />
            </Array>
          </mxGeometry>
        </mxCell>
        <mxCell id="49" value="$$SOC(t)$$" style="edgeStyle=orthogonalEdgeStyle;html=1;exitX=0.5;exitY=1;exitDx=0;exitDy=0;elbow=vertical;" parent="1" edge="1">
          <mxGeometry y="30" relative="1" as="geometry">
            <mxPoint x="-910" y="1170" as="targetPoint" />
            <mxPoint as="offset" />
            <mxPoint x="-910" y="1130" as="sourcePoint" />
          </mxGeometry>
        </mxCell>
        <mxCell id="34" value="Battery" style="rounded=0;whiteSpace=wrap;html=1;" parent="1" vertex="1">
          <mxGeometry x="-950" y="1050" width="80" height="80" as="geometry" />
        </mxCell>
        <mxCell id="40" value="$$I_{O,MPPT}(t)$$" style="edgeStyle=orthogonalEdgeStyle;html=1;exitX=1;exitY=0.25;exitDx=0;exitDy=0;entryX=0;entryY=0.5;entryDx=0;entryDy=0;elbow=vertical;" parent="1" source="35" target="38" edge="1">
          <mxGeometry x="0.2121" y="20" relative="1" as="geometry">
            <mxPoint as="offset" />
          </mxGeometry>
        </mxCell>
        <mxCell id="50" value="$$V_{PV}(t)$$" style="edgeStyle=orthogonalEdgeStyle;html=1;exitX=1;exitY=0.75;exitDx=0;exitDy=0;elbow=vertical;" parent="1" source="35" target="41" edge="1">
          <mxGeometry x="-0.8889" y="20" relative="1" as="geometry">
            <Array as="points">
              <mxPoint x="-1070" y="1150" />
              <mxPoint x="-1070" y="1220" />
              <mxPoint x="-1390" y="1220" />
              <mxPoint x="-1390" y="1150" />
            </Array>
            <mxPoint as="offset" />
          </mxGeometry>
        </mxCell>
        <mxCell id="35" value="MPPT" style="rounded=0;whiteSpace=wrap;html=1;" parent="1" vertex="1">
          <mxGeometry x="-1190" y="1060" width="80" height="120" as="geometry" />
        </mxCell>
        <mxCell id="39" value="$$I_{BAT}(t)$$" style="edgeStyle=orthogonalEdgeStyle;html=1;elbow=vertical;" parent="1" source="38" target="34" edge="1">
          <mxGeometry x="0.0625" y="20" relative="1" as="geometry">
            <mxPoint as="offset" />
          </mxGeometry>
        </mxCell>
        <mxCell id="38" value="" style="shape=sumEllipse;perimeter=ellipsePerimeter;whiteSpace=wrap;html=1;backgroundOutline=1;" parent="1" vertex="1">
          <mxGeometry x="-1045" y="1075" width="30" height="30" as="geometry" />
        </mxCell>
        <mxCell id="52" value="$$I_{PV}(t)$$" style="edgeStyle=orthogonalEdgeStyle;html=1;elbow=vertical;entryX=0;entryY=0.75;entryDx=0;entryDy=0;" parent="1" source="41" target="35" edge="1">
          <mxGeometry y="-20" relative="1" as="geometry">
            <mxPoint as="offset" />
            <Array as="points">
              <mxPoint x="-1250" y="1150" />
              <mxPoint x="-1250" y="1150" />
            </Array>
          </mxGeometry>
        </mxCell>
        <mxCell id="41" value="PV" style="rounded=0;whiteSpace=wrap;html=1;" parent="1" vertex="1">
          <mxGeometry x="-1350" y="990" width="80" height="190" as="geometry" />
        </mxCell>
        <mxCell id="45" value="-" style="text;html=1;align=center;verticalAlign=middle;resizable=0;points=[];autosize=1;strokeColor=none;fillColor=none;" parent="1" vertex="1">
          <mxGeometry x="-1054" y="1075" width="30" height="30" as="geometry" />
        </mxCell>
        <mxCell id="46" value="+" style="text;html=1;align=center;verticalAlign=middle;resizable=0;points=[];autosize=1;strokeColor=none;fillColor=none;" parent="1" vertex="1">
          <mxGeometry x="-1045" y="1083" width="30" height="30" as="geometry" />
        </mxCell>
        <mxCell id="53" value="$$G(t)$$" style="endArrow=classic;html=1;elbow=vertical;entryX=0.021;entryY=0.212;entryDx=0;entryDy=0;entryPerimeter=0;" parent="1" target="41" edge="1">
          <mxGeometry x="-1" y="-20" width="50" height="50" relative="1" as="geometry">
            <mxPoint x="-1390" y="1030" as="sourcePoint" />
            <mxPoint x="-1380" y="1030" as="targetPoint" />
            <mxPoint x="-20" y="-20" as="offset" />
          </mxGeometry>
        </mxCell>
        <mxCell id="54" value="$$T_c(t)$$" style="endArrow=classic;html=1;elbow=vertical;entryX=0;entryY=0.5;entryDx=0;entryDy=0;" parent="1" edge="1">
          <mxGeometry x="-1" y="-20" width="50" height="50" relative="1" as="geometry">
            <mxPoint x="-1390" y="1110" as="sourcePoint" />
            <mxPoint x="-1350" y="1110" as="targetPoint" />
            <mxPoint x="-20" y="-20" as="offset" />
          </mxGeometry>
        </mxCell>
        <mxCell id="56" style="edgeStyle=orthogonalEdgeStyle;html=1;elbow=vertical;" parent="1" source="55" target="38" edge="1">
          <mxGeometry relative="1" as="geometry">
            <mxPoint x="-1030" y="1030" as="targetPoint" />
          </mxGeometry>
        </mxCell>
        <mxCell id="55" value="Passive Loads" style="rounded=0;whiteSpace=wrap;html=1;" parent="1" vertex="1">
          <mxGeometry x="-1190" y="950" width="80" height="40" as="geometry" />
        </mxCell>
        <mxCell id="57" value="+" style="text;html=1;align=center;verticalAlign=middle;resizable=0;points=[];autosize=1;strokeColor=none;fillColor=none;" parent="1" vertex="1">
          <mxGeometry x="-1045" y="1066" width="30" height="30" as="geometry" />
        </mxCell>
        <mxCell id="59" value="$$W_p(t)$$" style="edgeStyle=orthogonalEdgeStyle;html=1;exitX=1;exitY=0.75;exitDx=0;exitDy=0;elbow=vertical;entryX=0;entryY=0.75;entryDx=0;entryDy=0;" parent="1" source="58" target="21" edge="1">
          <mxGeometry y="-20" relative="1" as="geometry">
            <mxPoint as="offset" />
          </mxGeometry>
        </mxCell>
        <mxCell id="60" value="$$T_m(t)$$" style="edgeStyle=orthogonalEdgeStyle;html=1;exitX=1;exitY=0.25;exitDx=0;exitDy=0;entryX=0;entryY=0.25;entryDx=0;entryDy=0;elbow=vertical;" parent="1" source="58" target="19" edge="1">
          <mxGeometry x="-0.7857" y="20" relative="1" as="geometry">
            <Array as="points">
              <mxPoint x="-270" y="1050" />
              <mxPoint x="-270" y="990" />
              <mxPoint x="-630" y="990" />
              <mxPoint x="-630" y="1050" />
            </Array>
            <mxPoint as="offset" />
          </mxGeometry>
        </mxCell>
        <mxCell id="58" value="Transmission" style="rounded=0;whiteSpace=wrap;html=1;" parent="1" vertex="1">
          <mxGeometry x="-390" y="1030" width="80" height="80" as="geometry" />
        </mxCell>
        <mxCell id="65" value="$$I_{I, ESC}(t)$$" style="edgeStyle=orthogonalEdgeStyle;html=1;exitX=1;exitY=0.75;exitDx=0;exitDy=0;elbow=vertical;entryX=0.809;entryY=1.009;entryDx=0;entryDy=0;entryPerimeter=0;" parent="1" source="63" target="77" edge="1">
          <mxGeometry x="0.9232" y="-30" relative="1" as="geometry">
            <mxPoint x="-990" y="1540" as="targetPoint" />
            <Array as="points">
              <mxPoint x="-630" y="1530" />
              <mxPoint x="-630" y="1610" />
              <mxPoint x="-990" y="1610" />
            </Array>
            <mxPoint as="offset" />
          </mxGeometry>
        </mxCell>
        <mxCell id="63" value="Propulsion" style="rounded=0;whiteSpace=wrap;html=1;" parent="1" vertex="1">
          <mxGeometry x="-750" y="1470" width="80" height="80" as="geometry" />
        </mxCell>
        <mxCell id="64" value="$$D(t)$$" style="endArrow=classic;html=1;elbow=vertical;entryX=0.5;entryY=0;entryDx=0;entryDy=0;" parent="1" target="63" edge="1">
          <mxGeometry y="20" width="50" height="50" relative="1" as="geometry">
            <mxPoint x="-710" y="1430" as="sourcePoint" />
            <mxPoint x="-750" y="1380" as="targetPoint" />
            <mxPoint as="offset" />
          </mxGeometry>
        </mxCell>
        <mxCell id="66" value="$$V_{BAT}(t)$$" style="edgeStyle=orthogonalEdgeStyle;html=1;exitX=1;exitY=0.5;exitDx=0;exitDy=0;elbow=vertical;" parent="1" source="69" target="63" edge="1">
          <mxGeometry x="-0.1286" y="-20" relative="1" as="geometry">
            <mxPoint x="-830" y="1480" as="sourcePoint" />
            <mxPoint x="-710" y="1510" as="targetPoint" />
            <Array as="points" />
            <mxPoint as="offset" />
          </mxGeometry>
        </mxCell>
        <mxCell id="67" style="edgeStyle=orthogonalEdgeStyle;html=1;exitX=1;exitY=0.5;exitDx=0;exitDy=0;elbow=vertical;entryX=0;entryY=0.25;entryDx=0;entryDy=0;" parent="1" source="69" target="84" edge="1">
          <mxGeometry relative="1" as="geometry">
            <Array as="points">
              <mxPoint x="-790" y="1510" />
              <mxPoint x="-790" y="1430" />
              <mxPoint x="-1190" y="1430" />
              <mxPoint x="-1190" y="1480" />
            </Array>
            <mxPoint x="-1150" y="1500" as="targetPoint" />
          </mxGeometry>
        </mxCell>
        <mxCell id="68" value="$$SOC(t)$$" style="edgeStyle=orthogonalEdgeStyle;html=1;exitX=0.5;exitY=1;exitDx=0;exitDy=0;elbow=vertical;" parent="1" source="69" edge="1">
          <mxGeometry y="30" relative="1" as="geometry">
            <mxPoint x="-870" y="1590" as="targetPoint" />
            <mxPoint as="offset" />
          </mxGeometry>
        </mxCell>
        <mxCell id="69" value="Battery" style="rounded=0;whiteSpace=wrap;html=1;" parent="1" vertex="1">
          <mxGeometry x="-910" y="1470" width="80" height="80" as="geometry" />
        </mxCell>
        <mxCell id="70" value="$$I_{O,MPPT}(t)$$" style="edgeStyle=orthogonalEdgeStyle;html=1;exitX=1;exitY=0.5;exitDx=0;exitDy=0;entryX=0;entryY=0.5;entryDx=0;entryDy=0;elbow=vertical;" parent="1" source="84" target="74" edge="1">
          <mxGeometry x="0.2121" y="20" relative="1" as="geometry">
            <mxPoint as="offset" />
            <mxPoint x="-1070" y="1510" as="sourcePoint" />
          </mxGeometry>
        </mxCell>
        <mxCell id="73" value="$$I_{BAT}(t)$$" style="edgeStyle=orthogonalEdgeStyle;html=1;elbow=vertical;" parent="1" source="74" target="69" edge="1">
          <mxGeometry x="0.0625" y="20" relative="1" as="geometry">
            <mxPoint as="offset" />
          </mxGeometry>
        </mxCell>
        <mxCell id="74" value="" style="shape=sumEllipse;perimeter=ellipsePerimeter;whiteSpace=wrap;html=1;backgroundOutline=1;" parent="1" vertex="1">
          <mxGeometry x="-1005" y="1495" width="30" height="30" as="geometry" />
        </mxCell>
        <mxCell id="77" value="-" style="text;html=1;align=center;verticalAlign=middle;resizable=0;points=[];autosize=1;strokeColor=none;fillColor=none;" parent="1" vertex="1">
          <mxGeometry x="-1014" y="1495" width="30" height="30" as="geometry" />
        </mxCell>
        <mxCell id="78" value="+" style="text;html=1;align=center;verticalAlign=middle;resizable=0;points=[];autosize=1;strokeColor=none;fillColor=none;" parent="1" vertex="1">
          <mxGeometry x="-1005" y="1503" width="30" height="30" as="geometry" />
        </mxCell>
        <mxCell id="79" value="$$G(t)$$" style="endArrow=classic;html=1;elbow=vertical;entryX=0;entryY=0.5;entryDx=0;entryDy=0;" parent="1" target="84" edge="1">
          <mxGeometry x="-1" y="-20" width="50" height="50" relative="1" as="geometry">
            <mxPoint x="-1190" y="1510" as="sourcePoint" />
            <mxPoint x="-1170" y="1520" as="targetPoint" />
            <mxPoint x="-20" y="-20" as="offset" />
          </mxGeometry>
        </mxCell>
        <mxCell id="80" value="$$T_c(t)$$" style="endArrow=classic;html=1;elbow=vertical;entryX=0;entryY=0.75;entryDx=0;entryDy=0;" parent="1" target="84" edge="1">
          <mxGeometry x="-1" y="-20" width="50" height="50" relative="1" as="geometry">
            <mxPoint x="-1190" y="1540" as="sourcePoint" />
            <mxPoint x="-1160" y="1580" as="targetPoint" />
            <mxPoint x="-20" y="-20" as="offset" />
          </mxGeometry>
        </mxCell>
        <mxCell id="81" style="edgeStyle=orthogonalEdgeStyle;html=1;elbow=vertical;" parent="1" source="82" target="74" edge="1">
          <mxGeometry relative="1" as="geometry">
            <mxPoint x="-990" y="1470" as="targetPoint" />
          </mxGeometry>
        </mxCell>
        <mxCell id="82" value="Passive Loads" style="rounded=0;whiteSpace=wrap;html=1;" parent="1" vertex="1">
          <mxGeometry x="-1150" y="1370" width="80" height="40" as="geometry" />
        </mxCell>
        <mxCell id="83" value="+" style="text;html=1;align=center;verticalAlign=middle;resizable=0;points=[];autosize=1;strokeColor=none;fillColor=none;" parent="1" vertex="1">
          <mxGeometry x="-1005" y="1486" width="30" height="30" as="geometry" />
        </mxCell>
        <mxCell id="84" value="PV + MPPT" style="rounded=0;whiteSpace=wrap;html=1;" parent="1" vertex="1">
          <mxGeometry x="-1150" y="1450" width="80" height="120" as="geometry" />
        </mxCell>
        <mxCell id="90" value="$$V_{H}(t)$$" style="edgeStyle=none;html=1;exitX=1;exitY=0.5;exitDx=0;exitDy=0;" parent="1" source="63" edge="1">
          <mxGeometry x="1" y="-20" relative="1" as="geometry">
            <mxPoint x="-650" y="1510" as="sourcePoint" />
            <mxPoint x="-630" y="1510" as="targetPoint" />
            <mxPoint x="20" y="-19" as="offset" />
          </mxGeometry>
        </mxCell>
        <mxCell id="8AssvYGJsJ_mRKbQOy9S-90" value="$$V_{w}(t)$$" style="endArrow=classic;html=1;elbow=vertical;entryX=-0.014;entryY=0.423;entryDx=0;entryDy=0;entryPerimeter=0;" edge="1" parent="1" target="41">
          <mxGeometry x="-1" y="-20" width="50" height="50" relative="1" as="geometry">
            <mxPoint x="-1390" y="1070" as="sourcePoint" />
            <mxPoint x="-1388" y="1069.76" as="targetPoint" />
            <mxPoint x="-20" y="-20" as="offset" />
          </mxGeometry>
        </mxCell>
        <mxCell id="8AssvYGJsJ_mRKbQOy9S-102" value="$$V_{w}(t)$$" style="edgeStyle=orthogonalEdgeStyle;rounded=0;orthogonalLoop=1;jettySize=auto;html=1;exitX=1;exitY=0.5;exitDx=0;exitDy=0;" edge="1" parent="1" source="8AssvYGJsJ_mRKbQOy9S-92" target="8AssvYGJsJ_mRKbQOy9S-106">
          <mxGeometry x="0.0909" y="20" relative="1" as="geometry">
            <mxPoint x="-1350.56" y="709.76" as="targetPoint" />
            <Array as="points" />
            <mxPoint as="offset" />
          </mxGeometry>
        </mxCell>
        <mxCell id="8AssvYGJsJ_mRKbQOy9S-107" value="$$G(t)$$" style="edgeStyle=orthogonalEdgeStyle;rounded=0;orthogonalLoop=1;jettySize=auto;html=1;exitX=1;exitY=0.25;exitDx=0;exitDy=0;entryX=0;entryY=0.25;entryDx=0;entryDy=0;" edge="1" parent="1" source="8AssvYGJsJ_mRKbQOy9S-92" target="8AssvYGJsJ_mRKbQOy9S-106">
          <mxGeometry x="0.0909" y="20" relative="1" as="geometry">
            <mxPoint as="offset" />
          </mxGeometry>
        </mxCell>
        <mxCell id="8AssvYGJsJ_mRKbQOy9S-108" value="$$T_c(t)$$" style="edgeStyle=orthogonalEdgeStyle;rounded=0;orthogonalLoop=1;jettySize=auto;html=1;exitX=1;exitY=0.75;exitDx=0;exitDy=0;entryX=0;entryY=0.75;entryDx=0;entryDy=0;" edge="1" parent="1" source="8AssvYGJsJ_mRKbQOy9S-92" target="8AssvYGJsJ_mRKbQOy9S-106">
          <mxGeometry x="0.0909" y="20" relative="1" as="geometry">
            <mxPoint as="offset" />
          </mxGeometry>
        </mxCell>
        <mxCell id="8AssvYGJsJ_mRKbQOy9S-110" value="" style="edgeStyle=orthogonalEdgeStyle;rounded=0;orthogonalLoop=1;jettySize=auto;html=1;" edge="1" parent="1" source="8AssvYGJsJ_mRKbQOy9S-92">
          <mxGeometry relative="1" as="geometry">
            <mxPoint x="-1590.0000000000002" y="710.0000000000001" as="targetPoint" />
          </mxGeometry>
        </mxCell>
        <mxCell id="8AssvYGJsJ_mRKbQOy9S-92" value="PV&lt;br&gt;Thermal&lt;br&gt;Model" style="rounded=0;whiteSpace=wrap;html=1;" vertex="1" parent="1">
          <mxGeometry x="-1510" y="630" width="80" height="160" as="geometry" />
        </mxCell>
        <mxCell id="8AssvYGJsJ_mRKbQOy9S-111" value="$$V_{pv}(t)$$" style="edgeStyle=orthogonalEdgeStyle;rounded=1;orthogonalLoop=1;jettySize=auto;html=1;exitX=1;exitY=0.75;exitDx=0;exitDy=0;entryX=0.5;entryY=1;entryDx=0;entryDy=0;curved=0;" edge="1" parent="1" source="8AssvYGJsJ_mRKbQOy9S-93" target="8AssvYGJsJ_mRKbQOy9S-106">
          <mxGeometry x="-0.8974" y="20" relative="1" as="geometry">
            <Array as="points">
              <mxPoint x="-1070" y="760" />
              <mxPoint x="-1070" y="830" />
              <mxPoint x="-1310" y="830" />
            </Array>
            <mxPoint as="offset" />
          </mxGeometry>
        </mxCell>
        <mxCell id="8AssvYGJsJ_mRKbQOy9S-93" value="MPPT&lt;br&gt;Power" style="rounded=0;whiteSpace=wrap;html=1;" vertex="1" parent="1">
          <mxGeometry x="-1190" y="670" width="80" height="120" as="geometry" />
        </mxCell>
        <mxCell id="8AssvYGJsJ_mRKbQOy9S-146" value="$$D_{MPPT}(t)$$" style="edgeStyle=orthogonalEdgeStyle;rounded=0;orthogonalLoop=1;jettySize=auto;html=1;exitX=0.5;exitY=1;exitDx=0;exitDy=0;" edge="1" parent="1" source="8AssvYGJsJ_mRKbQOy9S-94" target="8AssvYGJsJ_mRKbQOy9S-93">
          <mxGeometry x="-0.4" y="40" relative="1" as="geometry">
            <mxPoint as="offset" />
          </mxGeometry>
        </mxCell>
        <mxCell id="8AssvYGJsJ_mRKbQOy9S-94" value="MPPT&lt;br&gt;Controller" style="rounded=0;whiteSpace=wrap;html=1;" vertex="1" parent="1">
          <mxGeometry x="-1190" y="470" width="80" height="100" as="geometry" />
        </mxCell>
        <mxCell id="8AssvYGJsJ_mRKbQOy9S-98" value="$$G(t)$$" style="endArrow=classic;html=1;elbow=vertical;entryX=0;entryY=0.25;entryDx=0;entryDy=0;" edge="1" parent="1" target="8AssvYGJsJ_mRKbQOy9S-92">
          <mxGeometry x="-1" y="-20" width="50" height="50" relative="1" as="geometry">
            <mxPoint x="-1552" y="670" as="sourcePoint" />
            <mxPoint x="-1522" y="650" as="targetPoint" />
            <mxPoint x="-20" y="-20" as="offset" />
          </mxGeometry>
        </mxCell>
        <mxCell id="8AssvYGJsJ_mRKbQOy9S-99" value="$$T_a(t)$$" style="endArrow=classic;html=1;elbow=vertical;entryX=0;entryY=0.75;entryDx=0;entryDy=0;" edge="1" parent="1" target="8AssvYGJsJ_mRKbQOy9S-92">
          <mxGeometry x="-1" y="-20" width="50" height="50" relative="1" as="geometry">
            <mxPoint x="-1552" y="749.66" as="sourcePoint" />
            <mxPoint x="-1512" y="749.66" as="targetPoint" />
            <mxPoint x="-20" y="-20" as="offset" />
          </mxGeometry>
        </mxCell>
        <mxCell id="8AssvYGJsJ_mRKbQOy9S-100" value="$$V_{w}(t)$$" style="endArrow=classic;html=1;elbow=vertical;entryX=0;entryY=0.5;entryDx=0;entryDy=0;" edge="1" parent="1" target="8AssvYGJsJ_mRKbQOy9S-92">
          <mxGeometry x="-1" y="20" width="50" height="50" relative="1" as="geometry">
            <mxPoint x="-1552" y="710" as="sourcePoint" />
            <mxPoint x="-1513" y="709.66" as="targetPoint" />
            <mxPoint x="-20" y="20" as="offset" />
          </mxGeometry>
        </mxCell>
        <mxCell id="8AssvYGJsJ_mRKbQOy9S-112" value="$$I_{pv}(t)$$" style="edgeStyle=orthogonalEdgeStyle;rounded=0;orthogonalLoop=1;jettySize=auto;html=1;exitX=1;exitY=0.75;exitDx=0;exitDy=0;" edge="1" parent="1" source="8AssvYGJsJ_mRKbQOy9S-106">
          <mxGeometry x="-0.0009" y="20" relative="1" as="geometry">
            <mxPoint x="-1190" y="750" as="targetPoint" />
            <Array as="points">
              <mxPoint x="-1190" y="750" />
            </Array>
            <mxPoint as="offset" />
          </mxGeometry>
        </mxCell>
        <mxCell id="8AssvYGJsJ_mRKbQOy9S-106" value="PV&lt;br&gt;Single&lt;br&gt;Diode&lt;br&gt;Model" style="rounded=0;whiteSpace=wrap;html=1;" vertex="1" parent="1">
          <mxGeometry x="-1350" y="630" width="80" height="160" as="geometry" />
        </mxCell>
        <mxCell id="8AssvYGJsJ_mRKbQOy9S-113" value="$$V_A(t)$$" style="edgeStyle=orthogonalEdgeStyle;html=1;elbow=vertical;entryX=0;entryY=0.75;entryDx=0;entryDy=0;" edge="1" parent="1" source="8AssvYGJsJ_mRKbQOy9S-115" target="8AssvYGJsJ_mRKbQOy9S-118">
          <mxGeometry y="20" relative="1" as="geometry">
            <mxPoint as="offset" />
          </mxGeometry>
        </mxCell>
        <mxCell id="8AssvYGJsJ_mRKbQOy9S-114" value="$$I_{I, ESC}(t)$$" style="edgeStyle=orthogonalEdgeStyle;html=1;exitX=1;exitY=0.75;exitDx=0;exitDy=0;elbow=vertical;entryX=0.5;entryY=1;entryDx=0;entryDy=0;" edge="1" parent="1" source="8AssvYGJsJ_mRKbQOy9S-115" target="8AssvYGJsJ_mRKbQOy9S-131">
          <mxGeometry x="0.9259" y="-29" relative="1" as="geometry">
            <mxPoint x="-1010.03" y="770" as="targetPoint" />
            <Array as="points">
              <mxPoint x="-630.03" y="740" />
              <mxPoint x="-630.03" y="850" />
              <mxPoint x="-1030.03" y="850" />
              <mxPoint x="-1030.03" y="725" />
            </Array>
            <mxPoint as="offset" />
          </mxGeometry>
        </mxCell>
        <mxCell id="8AssvYGJsJ_mRKbQOy9S-115" value="ESC" style="rounded=0;whiteSpace=wrap;html=1;" vertex="1" parent="1">
          <mxGeometry x="-750.03" y="650" width="80" height="120" as="geometry" />
        </mxCell>
        <mxCell id="8AssvYGJsJ_mRKbQOy9S-116" value="$$W_m(t)$$" style="edgeStyle=none;html=1;exitX=1;exitY=0.25;exitDx=0;exitDy=0;entryX=0;entryY=0.25;entryDx=0;entryDy=0;" edge="1" parent="1" source="8AssvYGJsJ_mRKbQOy9S-118" target="8AssvYGJsJ_mRKbQOy9S-143">
          <mxGeometry y="20" relative="1" as="geometry">
            <mxPoint x="-460.03" y="680" as="targetPoint" />
            <mxPoint as="offset" />
          </mxGeometry>
        </mxCell>
        <mxCell id="8AssvYGJsJ_mRKbQOy9S-117" value="$$I_{a}(t)$$" style="edgeStyle=orthogonalEdgeStyle;html=1;exitX=1;exitY=0.75;exitDx=0;exitDy=0;entryX=0;entryY=0.75;entryDx=0;entryDy=0;elbow=vertical;" edge="1" parent="1" source="8AssvYGJsJ_mRKbQOy9S-118" target="8AssvYGJsJ_mRKbQOy9S-115">
          <mxGeometry x="0.8462" y="20" relative="1" as="geometry">
            <Array as="points">
              <mxPoint x="-470.03" y="710" />
              <mxPoint x="-470.03" y="810" />
              <mxPoint x="-790.03" y="810" />
              <mxPoint x="-790.03" y="740" />
            </Array>
            <mxPoint as="offset" />
          </mxGeometry>
        </mxCell>
        <mxCell id="8AssvYGJsJ_mRKbQOy9S-118" value="Motor" style="rounded=0;whiteSpace=wrap;html=1;" vertex="1" parent="1">
          <mxGeometry x="-590.03" y="650" width="80" height="80" as="geometry" />
        </mxCell>
        <mxCell id="8AssvYGJsJ_mRKbQOy9S-119" value="$$T_p(t)$$" style="edgeStyle=orthogonalEdgeStyle;html=1;exitX=1;exitY=0.75;exitDx=0;exitDy=0;entryX=0;entryY=0.75;entryDx=0;entryDy=0;elbow=vertical;" edge="1" parent="1" source="8AssvYGJsJ_mRKbQOy9S-121" target="8AssvYGJsJ_mRKbQOy9S-143">
          <mxGeometry x="-0.7692" y="-20" relative="1" as="geometry">
            <Array as="points">
              <mxPoint x="-110.02999999999997" y="710" />
              <mxPoint x="-110.02999999999997" y="770" />
              <mxPoint x="-430.03" y="770" />
              <mxPoint x="-430.03" y="710" />
            </Array>
            <mxPoint as="offset" />
          </mxGeometry>
        </mxCell>
        <mxCell id="8AssvYGJsJ_mRKbQOy9S-120" value="$$V_{H}(t)$$" style="edgeStyle=none;html=1;exitX=1;exitY=0.5;exitDx=0;exitDy=0;" edge="1" parent="1" source="8AssvYGJsJ_mRKbQOy9S-121">
          <mxGeometry x="1" y="20" relative="1" as="geometry">
            <mxPoint x="-40.02999999999997" y="680" as="sourcePoint" />
            <mxPoint x="-110.02999999999997" y="690" as="targetPoint" />
            <mxPoint x="20" y="20" as="offset" />
          </mxGeometry>
        </mxCell>
        <mxCell id="8AssvYGJsJ_mRKbQOy9S-121" value="Propeller" style="rounded=0;whiteSpace=wrap;html=1;" vertex="1" parent="1">
          <mxGeometry x="-230.02999999999997" y="650" width="80" height="80" as="geometry" />
        </mxCell>
        <mxCell id="8AssvYGJsJ_mRKbQOy9S-122" value="$$V_{BAT}(t)$$" style="edgeStyle=orthogonalEdgeStyle;html=1;exitX=1;exitY=0.5;exitDx=0;exitDy=0;elbow=vertical;entryX=0;entryY=0.5;entryDx=0;entryDy=0;" edge="1" parent="1" source="8AssvYGJsJ_mRKbQOy9S-126" target="8AssvYGJsJ_mRKbQOy9S-115">
          <mxGeometry x="0.4999" y="20" relative="1" as="geometry">
            <mxPoint x="-870.03" y="680" as="sourcePoint" />
            <Array as="points">
              <mxPoint x="-890.03" y="710" />
              <mxPoint x="-890.03" y="710" />
            </Array>
            <mxPoint as="offset" />
          </mxGeometry>
        </mxCell>
        <mxCell id="8AssvYGJsJ_mRKbQOy9S-123" value="$$D_{ESC}(t)$$" style="endArrow=classic;html=1;elbow=vertical;entryX=0.5;entryY=0;entryDx=0;entryDy=0;" edge="1" parent="1" target="8AssvYGJsJ_mRKbQOy9S-115">
          <mxGeometry x="-0.5" y="30" width="50" height="50" relative="1" as="geometry">
            <mxPoint x="-710.03" y="610" as="sourcePoint" />
            <mxPoint x="-750.03" y="560" as="targetPoint" />
            <mxPoint as="offset" />
          </mxGeometry>
        </mxCell>
        <mxCell id="8AssvYGJsJ_mRKbQOy9S-124" value="$$V_{BAT}(t)$$" style="edgeStyle=orthogonalEdgeStyle;html=1;exitX=1;exitY=0.5;exitDx=0;exitDy=0;entryX=0;entryY=0.25;entryDx=0;entryDy=0;elbow=vertical;" edge="1" parent="1" source="8AssvYGJsJ_mRKbQOy9S-126">
          <mxGeometry x="0.5311" y="20" relative="1" as="geometry">
            <Array as="points">
              <mxPoint x="-830.03" y="710" />
              <mxPoint x="-830.03" y="630" />
              <mxPoint x="-1230.03" y="630" />
              <mxPoint x="-1230.03" y="710" />
            </Array>
            <mxPoint x="-1190.0300000000002" y="710" as="targetPoint" />
            <mxPoint as="offset" />
          </mxGeometry>
        </mxCell>
        <mxCell id="8AssvYGJsJ_mRKbQOy9S-125" value="$$SOC(t)$$" style="edgeStyle=orthogonalEdgeStyle;html=1;exitX=0.5;exitY=1;exitDx=0;exitDy=0;elbow=vertical;" edge="1" parent="1">
          <mxGeometry y="30" relative="1" as="geometry">
            <mxPoint x="-910.03" y="790" as="targetPoint" />
            <mxPoint as="offset" />
            <mxPoint x="-910.03" y="750" as="sourcePoint" />
          </mxGeometry>
        </mxCell>
        <mxCell id="8AssvYGJsJ_mRKbQOy9S-126" value="Battery" style="rounded=0;whiteSpace=wrap;html=1;" vertex="1" parent="1">
          <mxGeometry x="-950.03" y="670" width="80" height="80" as="geometry" />
        </mxCell>
        <mxCell id="8AssvYGJsJ_mRKbQOy9S-127" value="$$I_{O,MPPT}(t)$$" style="edgeStyle=orthogonalEdgeStyle;html=1;exitX=1;exitY=0.25;exitDx=0;exitDy=0;entryX=0;entryY=0.5;entryDx=0;entryDy=0;elbow=vertical;" edge="1" parent="1" target="8AssvYGJsJ_mRKbQOy9S-131">
          <mxGeometry x="0.2121" y="20" relative="1" as="geometry">
            <mxPoint as="offset" />
            <mxPoint x="-1110.0300000000002" y="710" as="sourcePoint" />
          </mxGeometry>
        </mxCell>
        <mxCell id="8AssvYGJsJ_mRKbQOy9S-130" value="$$I_{BAT}(t)$$" style="edgeStyle=orthogonalEdgeStyle;html=1;elbow=vertical;" edge="1" parent="1" source="8AssvYGJsJ_mRKbQOy9S-131" target="8AssvYGJsJ_mRKbQOy9S-126">
          <mxGeometry x="0.0625" y="20" relative="1" as="geometry">
            <mxPoint as="offset" />
          </mxGeometry>
        </mxCell>
        <mxCell id="8AssvYGJsJ_mRKbQOy9S-131" value="" style="shape=sumEllipse;perimeter=ellipsePerimeter;whiteSpace=wrap;html=1;backgroundOutline=1;" vertex="1" parent="1">
          <mxGeometry x="-1045.03" y="695" width="30" height="30" as="geometry" />
        </mxCell>
        <mxCell id="8AssvYGJsJ_mRKbQOy9S-134" value="-" style="text;html=1;align=center;verticalAlign=middle;resizable=0;points=[];autosize=1;strokeColor=none;fillColor=none;" vertex="1" parent="1">
          <mxGeometry x="-1054.03" y="695" width="30" height="30" as="geometry" />
        </mxCell>
        <mxCell id="8AssvYGJsJ_mRKbQOy9S-135" value="+" style="text;html=1;align=center;verticalAlign=middle;resizable=0;points=[];autosize=1;strokeColor=none;fillColor=none;" vertex="1" parent="1">
          <mxGeometry x="-1045.03" y="703" width="30" height="30" as="geometry" />
        </mxCell>
        <mxCell id="8AssvYGJsJ_mRKbQOy9S-138" style="edgeStyle=orthogonalEdgeStyle;html=1;elbow=vertical;" edge="1" parent="1" source="8AssvYGJsJ_mRKbQOy9S-139" target="8AssvYGJsJ_mRKbQOy9S-131">
          <mxGeometry relative="1" as="geometry">
            <mxPoint x="-1030.03" y="650" as="targetPoint" />
          </mxGeometry>
        </mxCell>
        <mxCell id="8AssvYGJsJ_mRKbQOy9S-139" value="Passive Loads" style="rounded=0;whiteSpace=wrap;html=1;" vertex="1" parent="1">
          <mxGeometry x="-950" y="550" width="80" height="40" as="geometry" />
        </mxCell>
        <mxCell id="8AssvYGJsJ_mRKbQOy9S-140" value="+" style="text;html=1;align=center;verticalAlign=middle;resizable=0;points=[];autosize=1;strokeColor=none;fillColor=none;" vertex="1" parent="1">
          <mxGeometry x="-1045.03" y="686" width="30" height="30" as="geometry" />
        </mxCell>
        <mxCell id="8AssvYGJsJ_mRKbQOy9S-141" value="$$W_p(t)$$" style="edgeStyle=orthogonalEdgeStyle;html=1;exitX=1;exitY=0.75;exitDx=0;exitDy=0;elbow=vertical;entryX=0;entryY=0.75;entryDx=0;entryDy=0;" edge="1" parent="1" source="8AssvYGJsJ_mRKbQOy9S-143" target="8AssvYGJsJ_mRKbQOy9S-121">
          <mxGeometry y="-20" relative="1" as="geometry">
            <mxPoint as="offset" />
          </mxGeometry>
        </mxCell>
        <mxCell id="8AssvYGJsJ_mRKbQOy9S-142" value="$$T_m(t)$$" style="edgeStyle=orthogonalEdgeStyle;html=1;exitX=1;exitY=0.25;exitDx=0;exitDy=0;entryX=0;entryY=0.25;entryDx=0;entryDy=0;elbow=vertical;" edge="1" parent="1" source="8AssvYGJsJ_mRKbQOy9S-143" target="8AssvYGJsJ_mRKbQOy9S-118">
          <mxGeometry x="-0.7857" y="20" relative="1" as="geometry">
            <Array as="points">
              <mxPoint x="-270.03" y="670" />
              <mxPoint x="-270.03" y="610" />
              <mxPoint x="-630.03" y="610" />
              <mxPoint x="-630.03" y="670" />
            </Array>
            <mxPoint as="offset" />
          </mxGeometry>
        </mxCell>
        <mxCell id="8AssvYGJsJ_mRKbQOy9S-143" value="Transmission" style="rounded=0;whiteSpace=wrap;html=1;" vertex="1" parent="1">
          <mxGeometry x="-390.03" y="650" width="80" height="80" as="geometry" />
        </mxCell>
        <mxCell id="8AssvYGJsJ_mRKbQOy9S-147" value="$$V_{w}(t)$$" style="edgeStyle=orthogonalEdgeStyle;rounded=0;orthogonalLoop=1;jettySize=auto;html=1;exitX=1;exitY=0.5;exitDx=0;exitDy=0;" edge="1" parent="1" source="8AssvYGJsJ_mRKbQOy9S-151" target="8AssvYGJsJ_mRKbQOy9S-160">
          <mxGeometry x="0.0909" y="20" relative="1" as="geometry">
            <mxPoint x="2513.4700000000003" y="-110.24000000000001" as="targetPoint" />
            <Array as="points" />
            <mxPoint as="offset" />
          </mxGeometry>
        </mxCell>
        <mxCell id="8AssvYGJsJ_mRKbQOy9S-148" value="$$G(t)$$" style="edgeStyle=orthogonalEdgeStyle;rounded=0;orthogonalLoop=1;jettySize=auto;html=1;exitX=1;exitY=0.25;exitDx=0;exitDy=0;entryX=0;entryY=0.25;entryDx=0;entryDy=0;" edge="1" parent="1" source="8AssvYGJsJ_mRKbQOy9S-151" target="8AssvYGJsJ_mRKbQOy9S-160">
          <mxGeometry x="0.0882" y="20" relative="1" as="geometry">
            <mxPoint as="offset" />
          </mxGeometry>
        </mxCell>
        <mxCell id="8AssvYGJsJ_mRKbQOy9S-149" value="$$T_c(t)$$" style="edgeStyle=orthogonalEdgeStyle;rounded=0;orthogonalLoop=1;jettySize=auto;html=1;exitX=1;exitY=0.75;exitDx=0;exitDy=0;entryX=0;entryY=0.75;entryDx=0;entryDy=0;" edge="1" parent="1" source="8AssvYGJsJ_mRKbQOy9S-151" target="8AssvYGJsJ_mRKbQOy9S-160">
          <mxGeometry x="0.0909" y="20" relative="1" as="geometry">
            <mxPoint as="offset" />
          </mxGeometry>
        </mxCell>
        <mxCell id="8AssvYGJsJ_mRKbQOy9S-150" value="" style="edgeStyle=orthogonalEdgeStyle;rounded=0;orthogonalLoop=1;jettySize=auto;html=1;" edge="1" parent="1" source="8AssvYGJsJ_mRKbQOy9S-151">
          <mxGeometry relative="1" as="geometry">
            <mxPoint x="2274.0299999999997" y="-109.99999999999989" as="targetPoint" />
          </mxGeometry>
        </mxCell>
        <mxCell id="8AssvYGJsJ_mRKbQOy9S-151" value="PV&lt;br&gt;Thermal&lt;br&gt;Model" style="rounded=0;whiteSpace=wrap;html=1;" vertex="1" parent="1">
          <mxGeometry x="2354.03" y="-190" width="80" height="160" as="geometry" />
        </mxCell>
        <mxCell id="8AssvYGJsJ_mRKbQOy9S-152" value="$$V_{pv}(t)$$" style="edgeStyle=orthogonalEdgeStyle;rounded=1;orthogonalLoop=1;jettySize=auto;html=1;exitX=1;exitY=0.75;exitDx=0;exitDy=0;entryX=0.5;entryY=1;entryDx=0;entryDy=0;curved=0;" edge="1" parent="1" source="8AssvYGJsJ_mRKbQOy9S-153" target="8AssvYGJsJ_mRKbQOy9S-160">
          <mxGeometry x="-0.8974" y="20" relative="1" as="geometry">
            <Array as="points">
              <mxPoint x="2794.03" y="-60" />
              <mxPoint x="2794.03" y="10" />
              <mxPoint x="2554.03" y="10" />
            </Array>
            <mxPoint as="offset" />
          </mxGeometry>
        </mxCell>
        <mxCell id="8AssvYGJsJ_mRKbQOy9S-153" value="MPPT&lt;br&gt;Power" style="rounded=0;whiteSpace=wrap;html=1;" vertex="1" parent="1">
          <mxGeometry x="2674.03" y="-150" width="80" height="120" as="geometry" />
        </mxCell>
        <mxCell id="8AssvYGJsJ_mRKbQOy9S-154" value="$$D_{MPPT}(t)$$" style="edgeStyle=orthogonalEdgeStyle;rounded=0;orthogonalLoop=1;jettySize=auto;html=1;exitX=0.5;exitY=1;exitDx=0;exitDy=0;" edge="1" parent="1" source="8AssvYGJsJ_mRKbQOy9S-155" target="8AssvYGJsJ_mRKbQOy9S-153">
          <mxGeometry x="-0.4" y="40" relative="1" as="geometry">
            <mxPoint as="offset" />
          </mxGeometry>
        </mxCell>
        <mxCell id="8AssvYGJsJ_mRKbQOy9S-155" value="MPPT&lt;br&gt;Controller" style="rounded=0;whiteSpace=wrap;html=1;" vertex="1" parent="1">
          <mxGeometry x="2674.03" y="-350" width="80" height="100" as="geometry" />
        </mxCell>
        <mxCell id="8AssvYGJsJ_mRKbQOy9S-156" value="$$G(t)$$" style="endArrow=classic;html=1;elbow=vertical;entryX=0;entryY=0.25;entryDx=0;entryDy=0;" edge="1" parent="1" target="8AssvYGJsJ_mRKbQOy9S-151">
          <mxGeometry x="-1" y="-20" width="50" height="50" relative="1" as="geometry">
            <mxPoint x="2312.03" y="-150" as="sourcePoint" />
            <mxPoint x="2342.03" y="-170" as="targetPoint" />
            <mxPoint x="-20" y="-20" as="offset" />
          </mxGeometry>
        </mxCell>
        <mxCell id="8AssvYGJsJ_mRKbQOy9S-157" value="$$T_a(t)$$" style="endArrow=classic;html=1;elbow=vertical;entryX=0;entryY=0.75;entryDx=0;entryDy=0;" edge="1" parent="1" target="8AssvYGJsJ_mRKbQOy9S-151">
          <mxGeometry x="-1" y="-20" width="50" height="50" relative="1" as="geometry">
            <mxPoint x="2312.03" y="-70.34000000000003" as="sourcePoint" />
            <mxPoint x="2352.03" y="-70.34000000000003" as="targetPoint" />
            <mxPoint x="-20" y="-20" as="offset" />
          </mxGeometry>
        </mxCell>
        <mxCell id="8AssvYGJsJ_mRKbQOy9S-158" value="$$V_{w}(t)$$" style="endArrow=classic;html=1;elbow=vertical;entryX=0;entryY=0.5;entryDx=0;entryDy=0;" edge="1" parent="1" target="8AssvYGJsJ_mRKbQOy9S-151">
          <mxGeometry x="-1" y="20" width="50" height="50" relative="1" as="geometry">
            <mxPoint x="2312.03" y="-110" as="sourcePoint" />
            <mxPoint x="2351.03" y="-110.34000000000003" as="targetPoint" />
            <mxPoint x="-20" y="20" as="offset" />
          </mxGeometry>
        </mxCell>
        <mxCell id="8AssvYGJsJ_mRKbQOy9S-159" value="$$I_{pv}(t)$$" style="edgeStyle=orthogonalEdgeStyle;rounded=0;orthogonalLoop=1;jettySize=auto;html=1;exitX=1;exitY=0.75;exitDx=0;exitDy=0;" edge="1" parent="1" source="8AssvYGJsJ_mRKbQOy9S-160">
          <mxGeometry x="-0.0009" y="20" relative="1" as="geometry">
            <mxPoint x="2674.03" y="-70" as="targetPoint" />
            <Array as="points">
              <mxPoint x="2674.03" y="-70" />
            </Array>
            <mxPoint as="offset" />
          </mxGeometry>
        </mxCell>
        <mxCell id="8AssvYGJsJ_mRKbQOy9S-160" value="PV&lt;br&gt;Single&lt;br&gt;Diode&lt;br&gt;Model" style="rounded=0;whiteSpace=wrap;html=1;" vertex="1" parent="1">
          <mxGeometry x="2514.03" y="-190" width="80" height="160" as="geometry" />
        </mxCell>
        <mxCell id="8AssvYGJsJ_mRKbQOy9S-161" value="$$V_{BAT}(t)$$" style="edgeStyle=orthogonalEdgeStyle;html=1;exitX=1;exitY=0.5;exitDx=0;exitDy=0;entryX=0;entryY=0.25;entryDx=0;entryDy=0;elbow=vertical;" edge="1" parent="1" source="8AssvYGJsJ_mRKbQOy9S-163">
          <mxGeometry x="0.5312" y="20" relative="1" as="geometry">
            <Array as="points">
              <mxPoint x="3034" y="-110" />
              <mxPoint x="3034" y="-190" />
              <mxPoint x="2634" y="-190" />
              <mxPoint x="2634" y="-110" />
            </Array>
            <mxPoint x="2674" y="-110" as="targetPoint" />
            <mxPoint as="offset" />
          </mxGeometry>
        </mxCell>
        <mxCell id="8AssvYGJsJ_mRKbQOy9S-162" value="$$SOC(t)$$" style="edgeStyle=orthogonalEdgeStyle;html=1;exitX=0.5;exitY=1;exitDx=0;exitDy=0;elbow=vertical;" edge="1" parent="1">
          <mxGeometry y="30" relative="1" as="geometry">
            <mxPoint x="2954" y="-30" as="targetPoint" />
            <mxPoint as="offset" />
            <mxPoint x="2954" y="-70" as="sourcePoint" />
          </mxGeometry>
        </mxCell>
        <mxCell id="8AssvYGJsJ_mRKbQOy9S-163" value="Battery" style="rounded=0;whiteSpace=wrap;html=1;" vertex="1" parent="1">
          <mxGeometry x="2914" y="-150" width="80" height="80" as="geometry" />
        </mxCell>
        <mxCell id="8AssvYGJsJ_mRKbQOy9S-164" value="$$I_{O,MPPT}(t)$$" style="edgeStyle=orthogonalEdgeStyle;html=1;exitX=1;exitY=0.25;exitDx=0;exitDy=0;entryX=0;entryY=0.5;entryDx=0;entryDy=0;elbow=vertical;" edge="1" parent="1" target="8AssvYGJsJ_mRKbQOy9S-163">
          <mxGeometry x="0.2121" y="20" relative="1" as="geometry">
            <mxPoint as="offset" />
            <mxPoint x="2754" y="-110" as="sourcePoint" />
            <mxPoint x="2819" y="-110" as="targetPoint" />
          </mxGeometry>
        </mxCell>
        <mxCell id="8AssvYGJsJ_mRKbQOy9S-172" value="&lt;span style=&quot;color: rgb(240, 240, 240); font-family: Helvetica; font-size: 11px; font-style: normal; font-variant-ligatures: normal; font-variant-caps: normal; font-weight: 400; letter-spacing: normal; orphans: 2; text-align: center; text-indent: 0px; text-transform: none; widows: 2; word-spacing: 0px; -webkit-text-stroke-width: 0px; background-color: rgb(24, 20, 29); text-decoration-thickness: initial; text-decoration-style: initial; text-decoration-color: initial; float: none; display: inline !important;&quot;&gt;$$V_{BAT}(t)$$&lt;/span&gt;" style="text;whiteSpace=wrap;html=1;" vertex="1" parent="1">
          <mxGeometry x="3004" y="-117" width="110" height="40" as="geometry" />
        </mxCell>
        <mxCell id="8AssvYGJsJ_mRKbQOy9S-173" value="$$V_A(t)$$" style="edgeStyle=orthogonalEdgeStyle;html=1;elbow=vertical;entryX=0;entryY=0.75;entryDx=0;entryDy=0;" edge="1" parent="1" source="8AssvYGJsJ_mRKbQOy9S-175" target="8AssvYGJsJ_mRKbQOy9S-178">
          <mxGeometry y="20" relative="1" as="geometry">
            <mxPoint as="offset" />
          </mxGeometry>
        </mxCell>
        <mxCell id="8AssvYGJsJ_mRKbQOy9S-174" value="$$I_{I, ESC}(t)$$" style="edgeStyle=orthogonalEdgeStyle;html=1;exitX=1;exitY=0.75;exitDx=0;exitDy=0;elbow=vertical;entryX=0.5;entryY=1;entryDx=0;entryDy=0;" edge="1" parent="1" source="8AssvYGJsJ_mRKbQOy9S-175" target="8AssvYGJsJ_mRKbQOy9S-187">
          <mxGeometry x="0.9259" y="-29" relative="1" as="geometry">
            <mxPoint x="1494.03" y="-670" as="targetPoint" />
            <Array as="points">
              <mxPoint x="1874.03" y="-700" />
              <mxPoint x="1874.03" y="-590" />
              <mxPoint x="1474.03" y="-590" />
              <mxPoint x="1474.03" y="-715" />
            </Array>
            <mxPoint as="offset" />
          </mxGeometry>
        </mxCell>
        <mxCell id="8AssvYGJsJ_mRKbQOy9S-175" value="ESC" style="rounded=0;whiteSpace=wrap;html=1;" vertex="1" parent="1">
          <mxGeometry x="1754.03" y="-790" width="80" height="120" as="geometry" />
        </mxCell>
        <mxCell id="8AssvYGJsJ_mRKbQOy9S-176" value="$$W_m(t)$$" style="edgeStyle=none;html=1;exitX=1;exitY=0.25;exitDx=0;exitDy=0;entryX=0;entryY=0.25;entryDx=0;entryDy=0;" edge="1" parent="1" source="8AssvYGJsJ_mRKbQOy9S-178" target="8AssvYGJsJ_mRKbQOy9S-195">
          <mxGeometry y="20" relative="1" as="geometry">
            <mxPoint x="2044.03" y="-760" as="targetPoint" />
            <mxPoint as="offset" />
          </mxGeometry>
        </mxCell>
        <mxCell id="8AssvYGJsJ_mRKbQOy9S-177" value="$$I_{a}(t)$$" style="edgeStyle=orthogonalEdgeStyle;html=1;exitX=1;exitY=0.75;exitDx=0;exitDy=0;entryX=0;entryY=0.75;entryDx=0;entryDy=0;elbow=vertical;" edge="1" parent="1" source="8AssvYGJsJ_mRKbQOy9S-178" target="8AssvYGJsJ_mRKbQOy9S-175">
          <mxGeometry x="0.8462" y="20" relative="1" as="geometry">
            <Array as="points">
              <mxPoint x="2034.03" y="-730" />
              <mxPoint x="2034.03" y="-630" />
              <mxPoint x="1714.03" y="-630" />
              <mxPoint x="1714.03" y="-700" />
            </Array>
            <mxPoint as="offset" />
          </mxGeometry>
        </mxCell>
        <mxCell id="8AssvYGJsJ_mRKbQOy9S-178" value="Motor" style="rounded=0;whiteSpace=wrap;html=1;" vertex="1" parent="1">
          <mxGeometry x="1914.03" y="-790" width="80" height="80" as="geometry" />
        </mxCell>
        <mxCell id="8AssvYGJsJ_mRKbQOy9S-179" value="$$T_p(t)$$" style="edgeStyle=orthogonalEdgeStyle;html=1;exitX=1;exitY=0.75;exitDx=0;exitDy=0;entryX=0;entryY=0.75;entryDx=0;entryDy=0;elbow=vertical;" edge="1" parent="1" source="8AssvYGJsJ_mRKbQOy9S-181" target="8AssvYGJsJ_mRKbQOy9S-195">
          <mxGeometry x="-0.7692" y="-20" relative="1" as="geometry">
            <Array as="points">
              <mxPoint x="2394.0299999999997" y="-730" />
              <mxPoint x="2394.0299999999997" y="-670" />
              <mxPoint x="2074.0299999999997" y="-670" />
              <mxPoint x="2074.0299999999997" y="-730" />
            </Array>
            <mxPoint as="offset" />
          </mxGeometry>
        </mxCell>
        <mxCell id="8AssvYGJsJ_mRKbQOy9S-181" value="Propeller" style="rounded=0;whiteSpace=wrap;html=1;" vertex="1" parent="1">
          <mxGeometry x="2274.0299999999997" y="-790" width="80" height="80" as="geometry" />
        </mxCell>
        <mxCell id="8AssvYGJsJ_mRKbQOy9S-182" value="$$V_{BAT}(t)$$" style="edgeStyle=orthogonalEdgeStyle;html=1;exitX=1;exitY=0.5;exitDx=0;exitDy=0;elbow=vertical;entryX=0;entryY=0.5;entryDx=0;entryDy=0;" edge="1" parent="1" source="8AssvYGJsJ_mRKbQOy9S-185" target="8AssvYGJsJ_mRKbQOy9S-175">
          <mxGeometry x="0.4999" y="20" relative="1" as="geometry">
            <mxPoint x="1634.03" y="-760" as="sourcePoint" />
            <Array as="points">
              <mxPoint x="1614.03" y="-730" />
              <mxPoint x="1614.03" y="-730" />
            </Array>
            <mxPoint as="offset" />
          </mxGeometry>
        </mxCell>
        <mxCell id="8AssvYGJsJ_mRKbQOy9S-183" value="$$D_{ESC}(t)$$" style="endArrow=classic;html=1;elbow=vertical;entryX=0.5;entryY=0;entryDx=0;entryDy=0;" edge="1" parent="1" target="8AssvYGJsJ_mRKbQOy9S-175">
          <mxGeometry x="-0.5" y="30" width="50" height="50" relative="1" as="geometry">
            <mxPoint x="1794.03" y="-830" as="sourcePoint" />
            <mxPoint x="1754.03" y="-880" as="targetPoint" />
            <mxPoint as="offset" />
          </mxGeometry>
        </mxCell>
        <mxCell id="8AssvYGJsJ_mRKbQOy9S-184" value="$$SOC(t)$$" style="edgeStyle=orthogonalEdgeStyle;html=1;exitX=0.5;exitY=1;exitDx=0;exitDy=0;elbow=vertical;" edge="1" parent="1">
          <mxGeometry y="30" relative="1" as="geometry">
            <mxPoint x="1594.03" y="-650" as="targetPoint" />
            <mxPoint as="offset" />
            <mxPoint x="1594.03" y="-690" as="sourcePoint" />
          </mxGeometry>
        </mxCell>
        <mxCell id="8AssvYGJsJ_mRKbQOy9S-185" value="Battery" style="rounded=0;whiteSpace=wrap;html=1;" vertex="1" parent="1">
          <mxGeometry x="1554.03" y="-770" width="80" height="80" as="geometry" />
        </mxCell>
        <mxCell id="8AssvYGJsJ_mRKbQOy9S-186" value="$$I_{BAT}(t)$$" style="edgeStyle=orthogonalEdgeStyle;html=1;elbow=vertical;" edge="1" parent="1" source="8AssvYGJsJ_mRKbQOy9S-187" target="8AssvYGJsJ_mRKbQOy9S-185">
          <mxGeometry x="0.0625" y="20" relative="1" as="geometry">
            <mxPoint as="offset" />
          </mxGeometry>
        </mxCell>
        <mxCell id="8AssvYGJsJ_mRKbQOy9S-187" value="" style="shape=sumEllipse;perimeter=ellipsePerimeter;whiteSpace=wrap;html=1;backgroundOutline=1;" vertex="1" parent="1">
          <mxGeometry x="1459.03" y="-745" width="30" height="30" as="geometry" />
        </mxCell>
        <mxCell id="8AssvYGJsJ_mRKbQOy9S-188" value="-" style="text;html=1;align=center;verticalAlign=middle;resizable=0;points=[];autosize=1;strokeColor=none;fillColor=none;" vertex="1" parent="1">
          <mxGeometry x="1450.03" y="-745" width="30" height="30" as="geometry" />
        </mxCell>
        <mxCell id="8AssvYGJsJ_mRKbQOy9S-189" value="+" style="text;html=1;align=center;verticalAlign=middle;resizable=0;points=[];autosize=1;strokeColor=none;fillColor=none;" vertex="1" parent="1">
          <mxGeometry x="1459.03" y="-737" width="30" height="30" as="geometry" />
        </mxCell>
        <mxCell id="8AssvYGJsJ_mRKbQOy9S-193" value="$$W_p(t)$$" style="edgeStyle=orthogonalEdgeStyle;html=1;exitX=1;exitY=0.75;exitDx=0;exitDy=0;elbow=vertical;entryX=0;entryY=0.75;entryDx=0;entryDy=0;" edge="1" parent="1" source="8AssvYGJsJ_mRKbQOy9S-195" target="8AssvYGJsJ_mRKbQOy9S-181">
          <mxGeometry y="-20" relative="1" as="geometry">
            <mxPoint as="offset" />
          </mxGeometry>
        </mxCell>
        <mxCell id="8AssvYGJsJ_mRKbQOy9S-194" value="$$T_m(t)$$" style="edgeStyle=orthogonalEdgeStyle;html=1;exitX=1;exitY=0.25;exitDx=0;exitDy=0;entryX=0;entryY=0.25;entryDx=0;entryDy=0;elbow=vertical;" edge="1" parent="1" source="8AssvYGJsJ_mRKbQOy9S-195" target="8AssvYGJsJ_mRKbQOy9S-178">
          <mxGeometry x="-0.7857" y="20" relative="1" as="geometry">
            <Array as="points">
              <mxPoint x="2234.0299999999997" y="-770" />
              <mxPoint x="2234.0299999999997" y="-830" />
              <mxPoint x="1874.03" y="-830" />
              <mxPoint x="1874.03" y="-770" />
            </Array>
            <mxPoint as="offset" />
          </mxGeometry>
        </mxCell>
        <mxCell id="8AssvYGJsJ_mRKbQOy9S-195" value="Transmission" style="rounded=0;whiteSpace=wrap;html=1;" vertex="1" parent="1">
          <mxGeometry x="2114.0299999999997" y="-790" width="80" height="80" as="geometry" />
        </mxCell>
        <mxCell id="8AssvYGJsJ_mRKbQOy9S-196" value="$$I_{O,MPPT}(t)$$" style="edgeStyle=orthogonalEdgeStyle;html=1;exitX=1;exitY=0.25;exitDx=0;exitDy=0;entryX=0;entryY=0.5;entryDx=0;entryDy=0;elbow=vertical;" edge="1" parent="1">
          <mxGeometry x="-0.384" y="20" relative="1" as="geometry">
            <mxPoint y="1" as="offset" />
            <mxPoint x="1389.9999999999998" y="-730.5" as="sourcePoint" />
            <mxPoint x="1455.03" y="-730.5" as="targetPoint" />
          </mxGeometry>
        </mxCell>
        <mxCell id="8AssvYGJsJ_mRKbQOy9S-197" value="1. PROPULSION: TESTADO, FUNCIONAL" style="text;html=1;align=left;verticalAlign=middle;resizable=0;points=[];autosize=1;strokeColor=none;fillColor=none;strokeWidth=1;fontSize=16;fontStyle=1" vertex="1" parent="1">
          <mxGeometry x="1279.06" y="-2910" width="340" height="30" as="geometry" />
        </mxCell>
        <mxCell id="8AssvYGJsJ_mRKbQOy9S-198" value="4. GENERATION+BATTERY+PROPULSION: TESTADO, ERRRO &quot;ALGEBRIC LOOP&quot;&amp;nbsp;" style="text;html=1;align=left;verticalAlign=middle;resizable=0;points=[];autosize=1;strokeColor=none;fillColor=none;strokeWidth=1;fontSize=16;fontStyle=1" vertex="1" parent="1">
          <mxGeometry x="1279.06" y="-1620" width="650" height="30" as="geometry" />
        </mxCell>
        <mxCell id="8AssvYGJsJ_mRKbQOy9S-199" value="$$V_A(t)$$" style="edgeStyle=orthogonalEdgeStyle;html=1;elbow=vertical;entryX=0;entryY=0.75;entryDx=0;entryDy=0;" edge="1" parent="1" source="8AssvYGJsJ_mRKbQOy9S-200" target="8AssvYGJsJ_mRKbQOy9S-203">
          <mxGeometry y="20" relative="1" as="geometry">
            <mxPoint as="offset" />
          </mxGeometry>
        </mxCell>
        <mxCell id="8AssvYGJsJ_mRKbQOy9S-200" value="ESC" style="rounded=0;whiteSpace=wrap;html=1;" vertex="1" parent="1">
          <mxGeometry x="1554.06" y="-2730" width="80" height="120" as="geometry" />
        </mxCell>
        <mxCell id="8AssvYGJsJ_mRKbQOy9S-201" value="$$W_m(t)$$" style="edgeStyle=none;html=1;exitX=1;exitY=0.25;exitDx=0;exitDy=0;entryX=0;entryY=0.25;entryDx=0;entryDy=0;" edge="1" parent="1" source="8AssvYGJsJ_mRKbQOy9S-203" target="8AssvYGJsJ_mRKbQOy9S-210">
          <mxGeometry y="20" relative="1" as="geometry">
            <mxPoint x="1844.06" y="-2700" as="targetPoint" />
            <mxPoint as="offset" />
          </mxGeometry>
        </mxCell>
        <mxCell id="8AssvYGJsJ_mRKbQOy9S-202" value="$$I_{a}(t)$$" style="edgeStyle=orthogonalEdgeStyle;html=1;exitX=1;exitY=0.75;exitDx=0;exitDy=0;entryX=0;entryY=0.75;entryDx=0;entryDy=0;elbow=vertical;" edge="1" parent="1" source="8AssvYGJsJ_mRKbQOy9S-203" target="8AssvYGJsJ_mRKbQOy9S-200">
          <mxGeometry x="0.8462" y="20" relative="1" as="geometry">
            <Array as="points">
              <mxPoint x="1834.06" y="-2670" />
              <mxPoint x="1834.06" y="-2570" />
              <mxPoint x="1514.06" y="-2570" />
              <mxPoint x="1514.06" y="-2640" />
            </Array>
            <mxPoint as="offset" />
          </mxGeometry>
        </mxCell>
        <mxCell id="8AssvYGJsJ_mRKbQOy9S-203" value="Motor" style="rounded=0;whiteSpace=wrap;html=1;" vertex="1" parent="1">
          <mxGeometry x="1714.06" y="-2730" width="80" height="80" as="geometry" />
        </mxCell>
        <mxCell id="8AssvYGJsJ_mRKbQOy9S-204" value="$$T_p(t)$$" style="edgeStyle=orthogonalEdgeStyle;html=1;exitX=1;exitY=0.75;exitDx=0;exitDy=0;entryX=0;entryY=0.75;entryDx=0;entryDy=0;elbow=vertical;" edge="1" parent="1" source="8AssvYGJsJ_mRKbQOy9S-206" target="8AssvYGJsJ_mRKbQOy9S-210">
          <mxGeometry x="-0.7692" y="-20" relative="1" as="geometry">
            <Array as="points">
              <mxPoint x="2194.06" y="-2670" />
              <mxPoint x="2194.06" y="-2610" />
              <mxPoint x="1874.06" y="-2610" />
              <mxPoint x="1874.06" y="-2670" />
            </Array>
            <mxPoint as="offset" />
          </mxGeometry>
        </mxCell>
        <mxCell id="8AssvYGJsJ_mRKbQOy9S-206" value="Propeller" style="rounded=0;whiteSpace=wrap;html=1;" vertex="1" parent="1">
          <mxGeometry x="2074.06" y="-2730" width="80" height="80" as="geometry" />
        </mxCell>
        <mxCell id="8AssvYGJsJ_mRKbQOy9S-207" value="$$D_{ESC}(t)$$" style="endArrow=classic;html=1;elbow=vertical;entryX=0.5;entryY=0;entryDx=0;entryDy=0;" edge="1" parent="1" target="8AssvYGJsJ_mRKbQOy9S-200">
          <mxGeometry x="-0.5" y="30" width="50" height="50" relative="1" as="geometry">
            <mxPoint x="1594.06" y="-2770" as="sourcePoint" />
            <mxPoint x="1554.06" y="-2820" as="targetPoint" />
            <mxPoint as="offset" />
          </mxGeometry>
        </mxCell>
        <mxCell id="8AssvYGJsJ_mRKbQOy9S-208" value="$$W_p(t)$$" style="edgeStyle=orthogonalEdgeStyle;html=1;exitX=1;exitY=0.75;exitDx=0;exitDy=0;elbow=vertical;entryX=0;entryY=0.75;entryDx=0;entryDy=0;" edge="1" parent="1" source="8AssvYGJsJ_mRKbQOy9S-210" target="8AssvYGJsJ_mRKbQOy9S-206">
          <mxGeometry y="-20" relative="1" as="geometry">
            <mxPoint as="offset" />
          </mxGeometry>
        </mxCell>
        <mxCell id="8AssvYGJsJ_mRKbQOy9S-209" value="$$T_m(t)$$" style="edgeStyle=orthogonalEdgeStyle;html=1;exitX=1;exitY=0.25;exitDx=0;exitDy=0;entryX=0;entryY=0.25;entryDx=0;entryDy=0;elbow=vertical;" edge="1" parent="1" source="8AssvYGJsJ_mRKbQOy9S-210" target="8AssvYGJsJ_mRKbQOy9S-203">
          <mxGeometry x="-0.7857" y="20" relative="1" as="geometry">
            <Array as="points">
              <mxPoint x="2034.06" y="-2710" />
              <mxPoint x="2034.06" y="-2770" />
              <mxPoint x="1674.06" y="-2770" />
              <mxPoint x="1674.06" y="-2710" />
            </Array>
            <mxPoint as="offset" />
          </mxGeometry>
        </mxCell>
        <mxCell id="8AssvYGJsJ_mRKbQOy9S-210" value="Transmission" style="rounded=0;whiteSpace=wrap;html=1;" vertex="1" parent="1">
          <mxGeometry x="1914.06" y="-2730" width="80" height="80" as="geometry" />
        </mxCell>
        <mxCell id="8AssvYGJsJ_mRKbQOy9S-211" value="$$V_{w}(t)$$" style="edgeStyle=orthogonalEdgeStyle;rounded=0;orthogonalLoop=1;jettySize=auto;html=1;exitX=1;exitY=0.5;exitDx=0;exitDy=0;" edge="1" parent="1" source="8AssvYGJsJ_mRKbQOy9S-215" target="8AssvYGJsJ_mRKbQOy9S-224">
          <mxGeometry x="0.0909" y="20" relative="1" as="geometry">
            <mxPoint x="1639.44" y="-100.24000000000001" as="targetPoint" />
            <Array as="points" />
            <mxPoint as="offset" />
          </mxGeometry>
        </mxCell>
        <mxCell id="8AssvYGJsJ_mRKbQOy9S-212" value="$$G(t)$$" style="edgeStyle=orthogonalEdgeStyle;rounded=0;orthogonalLoop=1;jettySize=auto;html=1;exitX=1;exitY=0.25;exitDx=0;exitDy=0;entryX=0;entryY=0.25;entryDx=0;entryDy=0;" edge="1" parent="1" source="8AssvYGJsJ_mRKbQOy9S-215" target="8AssvYGJsJ_mRKbQOy9S-224">
          <mxGeometry x="0.0909" y="20" relative="1" as="geometry">
            <mxPoint as="offset" />
          </mxGeometry>
        </mxCell>
        <mxCell id="8AssvYGJsJ_mRKbQOy9S-213" value="$$T_c(t)$$" style="edgeStyle=orthogonalEdgeStyle;rounded=0;orthogonalLoop=1;jettySize=auto;html=1;exitX=1;exitY=0.75;exitDx=0;exitDy=0;entryX=0;entryY=0.75;entryDx=0;entryDy=0;" edge="1" parent="1" source="8AssvYGJsJ_mRKbQOy9S-215" target="8AssvYGJsJ_mRKbQOy9S-224">
          <mxGeometry x="0.0909" y="20" relative="1" as="geometry">
            <mxPoint as="offset" />
          </mxGeometry>
        </mxCell>
        <mxCell id="8AssvYGJsJ_mRKbQOy9S-214" value="" style="edgeStyle=orthogonalEdgeStyle;rounded=0;orthogonalLoop=1;jettySize=auto;html=1;" edge="1" parent="1" source="8AssvYGJsJ_mRKbQOy9S-215">
          <mxGeometry relative="1" as="geometry">
            <mxPoint x="1399.9999999999998" y="-100" as="targetPoint" />
          </mxGeometry>
        </mxCell>
        <mxCell id="8AssvYGJsJ_mRKbQOy9S-215" value="PV&lt;br&gt;Thermal&lt;br&gt;Model" style="rounded=0;whiteSpace=wrap;html=1;" vertex="1" parent="1">
          <mxGeometry x="1480" y="-180" width="80" height="160" as="geometry" />
        </mxCell>
        <mxCell id="8AssvYGJsJ_mRKbQOy9S-216" value="$$V_{pv}(t)$$" style="edgeStyle=orthogonalEdgeStyle;rounded=1;orthogonalLoop=1;jettySize=auto;html=1;exitX=1;exitY=0.75;exitDx=0;exitDy=0;entryX=0.5;entryY=1;entryDx=0;entryDy=0;curved=0;" edge="1" parent="1" source="8AssvYGJsJ_mRKbQOy9S-217" target="8AssvYGJsJ_mRKbQOy9S-224">
          <mxGeometry x="-0.8974" y="20" relative="1" as="geometry">
            <Array as="points">
              <mxPoint x="1920" y="-50" />
              <mxPoint x="1920" y="20" />
              <mxPoint x="1680" y="20" />
            </Array>
            <mxPoint as="offset" />
          </mxGeometry>
        </mxCell>
        <mxCell id="8AssvYGJsJ_mRKbQOy9S-217" value="MPPT&lt;br&gt;Power" style="rounded=0;whiteSpace=wrap;html=1;" vertex="1" parent="1">
          <mxGeometry x="1800" y="-140" width="80" height="120" as="geometry" />
        </mxCell>
        <mxCell id="8AssvYGJsJ_mRKbQOy9S-218" value="$$D_{MPPT}(t)$$" style="edgeStyle=orthogonalEdgeStyle;rounded=0;orthogonalLoop=1;jettySize=auto;html=1;exitX=0.5;exitY=1;exitDx=0;exitDy=0;" edge="1" parent="1" source="8AssvYGJsJ_mRKbQOy9S-219" target="8AssvYGJsJ_mRKbQOy9S-217">
          <mxGeometry x="-0.4" y="40" relative="1" as="geometry">
            <mxPoint as="offset" />
          </mxGeometry>
        </mxCell>
        <mxCell id="8AssvYGJsJ_mRKbQOy9S-219" value="MPPT&lt;br&gt;Controller" style="rounded=0;whiteSpace=wrap;html=1;" vertex="1" parent="1">
          <mxGeometry x="1800" y="-340" width="80" height="100" as="geometry" />
        </mxCell>
        <mxCell id="8AssvYGJsJ_mRKbQOy9S-220" value="$$G(t)$$" style="endArrow=classic;html=1;elbow=vertical;entryX=0;entryY=0.25;entryDx=0;entryDy=0;" edge="1" parent="1" target="8AssvYGJsJ_mRKbQOy9S-215">
          <mxGeometry x="-1" y="-20" width="50" height="50" relative="1" as="geometry">
            <mxPoint x="1438" y="-140" as="sourcePoint" />
            <mxPoint x="1468" y="-160" as="targetPoint" />
            <mxPoint x="-20" y="-20" as="offset" />
          </mxGeometry>
        </mxCell>
        <mxCell id="8AssvYGJsJ_mRKbQOy9S-221" value="$$T_a(t)$$" style="endArrow=classic;html=1;elbow=vertical;entryX=0;entryY=0.75;entryDx=0;entryDy=0;" edge="1" parent="1" target="8AssvYGJsJ_mRKbQOy9S-215">
          <mxGeometry x="-1" y="-20" width="50" height="50" relative="1" as="geometry">
            <mxPoint x="1438" y="-60.34000000000003" as="sourcePoint" />
            <mxPoint x="1478" y="-60.34000000000003" as="targetPoint" />
            <mxPoint x="-20" y="-20" as="offset" />
          </mxGeometry>
        </mxCell>
        <mxCell id="8AssvYGJsJ_mRKbQOy9S-222" value="$$V_{w}(t)$$" style="endArrow=classic;html=1;elbow=vertical;entryX=0;entryY=0.5;entryDx=0;entryDy=0;" edge="1" parent="1" target="8AssvYGJsJ_mRKbQOy9S-215">
          <mxGeometry x="-1" y="20" width="50" height="50" relative="1" as="geometry">
            <mxPoint x="1438" y="-100" as="sourcePoint" />
            <mxPoint x="1477" y="-100.34000000000015" as="targetPoint" />
            <mxPoint x="-20" y="20" as="offset" />
          </mxGeometry>
        </mxCell>
        <mxCell id="8AssvYGJsJ_mRKbQOy9S-223" value="$$I_{pv}(t)$$" style="edgeStyle=orthogonalEdgeStyle;rounded=0;orthogonalLoop=1;jettySize=auto;html=1;exitX=1;exitY=0.75;exitDx=0;exitDy=0;" edge="1" parent="1" source="8AssvYGJsJ_mRKbQOy9S-224">
          <mxGeometry x="-0.0009" y="20" relative="1" as="geometry">
            <mxPoint x="1800" y="-60" as="targetPoint" />
            <Array as="points">
              <mxPoint x="1800" y="-60" />
            </Array>
            <mxPoint as="offset" />
          </mxGeometry>
        </mxCell>
        <mxCell id="8AssvYGJsJ_mRKbQOy9S-224" value="PV&lt;br&gt;Single&lt;br&gt;Diode&lt;br&gt;Model" style="rounded=0;whiteSpace=wrap;html=1;" vertex="1" parent="1">
          <mxGeometry x="1640" y="-180" width="80" height="160" as="geometry" />
        </mxCell>
        <mxCell id="8AssvYGJsJ_mRKbQOy9S-225" value="$$V_{BAT}(t)$$" style="edgeStyle=orthogonalEdgeStyle;html=1;exitX=1;exitY=0.5;exitDx=0;exitDy=0;entryX=0;entryY=0.25;entryDx=0;entryDy=0;elbow=vertical;" edge="1" parent="1" source="8AssvYGJsJ_mRKbQOy9S-227">
          <mxGeometry x="0.5312" y="20" relative="1" as="geometry">
            <Array as="points">
              <mxPoint x="2159.97" y="-100" />
              <mxPoint x="2159.97" y="-180" />
              <mxPoint x="1759.97" y="-180" />
              <mxPoint x="1759.97" y="-100" />
            </Array>
            <mxPoint x="1799.9699999999998" y="-100" as="targetPoint" />
            <mxPoint as="offset" />
          </mxGeometry>
        </mxCell>
        <mxCell id="8AssvYGJsJ_mRKbQOy9S-226" value="$$SOC(t)$$" style="edgeStyle=orthogonalEdgeStyle;html=1;exitX=0.5;exitY=1;exitDx=0;exitDy=0;elbow=vertical;" edge="1" parent="1">
          <mxGeometry y="30" relative="1" as="geometry">
            <mxPoint x="2079.97" y="-20" as="targetPoint" />
            <mxPoint as="offset" />
            <mxPoint x="2079.97" y="-60" as="sourcePoint" />
          </mxGeometry>
        </mxCell>
        <mxCell id="8AssvYGJsJ_mRKbQOy9S-227" value="Battery" style="rounded=0;whiteSpace=wrap;html=1;" vertex="1" parent="1">
          <mxGeometry x="2039.97" y="-140" width="80" height="80" as="geometry" />
        </mxCell>
        <mxCell id="8AssvYGJsJ_mRKbQOy9S-228" value="$$I_{O,MPPT}(t)$$" style="edgeStyle=orthogonalEdgeStyle;html=1;exitX=1;exitY=0.25;exitDx=0;exitDy=0;entryX=0;entryY=0.5;entryDx=0;entryDy=0;elbow=vertical;" edge="1" parent="1" target="8AssvYGJsJ_mRKbQOy9S-230">
          <mxGeometry x="0.2121" y="20" relative="1" as="geometry">
            <mxPoint as="offset" />
            <mxPoint x="1879.9699999999998" y="-100" as="sourcePoint" />
          </mxGeometry>
        </mxCell>
        <mxCell id="8AssvYGJsJ_mRKbQOy9S-229" value="$$I_{BAT}(t)$$" style="edgeStyle=orthogonalEdgeStyle;html=1;elbow=vertical;" edge="1" parent="1" source="8AssvYGJsJ_mRKbQOy9S-230" target="8AssvYGJsJ_mRKbQOy9S-227">
          <mxGeometry x="0.0625" y="20" relative="1" as="geometry">
            <mxPoint as="offset" />
          </mxGeometry>
        </mxCell>
        <mxCell id="8AssvYGJsJ_mRKbQOy9S-230" value="" style="shape=sumEllipse;perimeter=ellipsePerimeter;whiteSpace=wrap;html=1;backgroundOutline=1;" vertex="1" parent="1">
          <mxGeometry x="1944.97" y="-115" width="30" height="30" as="geometry" />
        </mxCell>
        <mxCell id="8AssvYGJsJ_mRKbQOy9S-231" value="-" style="text;html=1;align=center;verticalAlign=middle;resizable=0;points=[];autosize=1;strokeColor=none;fillColor=none;" vertex="1" parent="1">
          <mxGeometry x="1935.97" y="-115" width="30" height="30" as="geometry" />
        </mxCell>
        <mxCell id="8AssvYGJsJ_mRKbQOy9S-232" value="+" style="text;html=1;align=center;verticalAlign=middle;resizable=0;points=[];autosize=1;strokeColor=none;fillColor=none;" vertex="1" parent="1">
          <mxGeometry x="1944.97" y="-107" width="30" height="30" as="geometry" />
        </mxCell>
        <mxCell id="8AssvYGJsJ_mRKbQOy9S-233" value="+" style="text;html=1;align=center;verticalAlign=middle;resizable=0;points=[];autosize=1;strokeColor=none;fillColor=none;" vertex="1" parent="1">
          <mxGeometry x="1944.97" y="-124" width="30" height="30" as="geometry" />
        </mxCell>
        <mxCell id="8AssvYGJsJ_mRKbQOy9S-234" value="$$V_{w}(t)$$" style="edgeStyle=orthogonalEdgeStyle;rounded=0;orthogonalLoop=1;jettySize=auto;html=1;exitX=1;exitY=0.5;exitDx=0;exitDy=0;" edge="1" parent="1" source="8AssvYGJsJ_mRKbQOy9S-238" target="8AssvYGJsJ_mRKbQOy9S-247">
          <mxGeometry x="0.0909" y="20" relative="1" as="geometry">
            <mxPoint x="1793.5" y="-1890.2399999999998" as="targetPoint" />
            <Array as="points" />
            <mxPoint as="offset" />
          </mxGeometry>
        </mxCell>
        <mxCell id="8AssvYGJsJ_mRKbQOy9S-235" value="$$G(t)$$" style="edgeStyle=orthogonalEdgeStyle;rounded=0;orthogonalLoop=1;jettySize=auto;html=1;exitX=1;exitY=0.25;exitDx=0;exitDy=0;entryX=0;entryY=0.25;entryDx=0;entryDy=0;" edge="1" parent="1" source="8AssvYGJsJ_mRKbQOy9S-238" target="8AssvYGJsJ_mRKbQOy9S-247">
          <mxGeometry x="0.0909" y="20" relative="1" as="geometry">
            <mxPoint as="offset" />
          </mxGeometry>
        </mxCell>
        <mxCell id="8AssvYGJsJ_mRKbQOy9S-236" value="$$T_c(t)$$" style="edgeStyle=orthogonalEdgeStyle;rounded=0;orthogonalLoop=1;jettySize=auto;html=1;exitX=1;exitY=0.75;exitDx=0;exitDy=0;entryX=0;entryY=0.75;entryDx=0;entryDy=0;" edge="1" parent="1" source="8AssvYGJsJ_mRKbQOy9S-238" target="8AssvYGJsJ_mRKbQOy9S-247">
          <mxGeometry x="0.0909" y="20" relative="1" as="geometry">
            <mxPoint as="offset" />
          </mxGeometry>
        </mxCell>
        <mxCell id="8AssvYGJsJ_mRKbQOy9S-237" value="" style="edgeStyle=orthogonalEdgeStyle;rounded=0;orthogonalLoop=1;jettySize=auto;html=1;" edge="1" parent="1" source="8AssvYGJsJ_mRKbQOy9S-238">
          <mxGeometry relative="1" as="geometry">
            <mxPoint x="1554.0599999999997" y="-1890" as="targetPoint" />
          </mxGeometry>
        </mxCell>
        <mxCell id="8AssvYGJsJ_mRKbQOy9S-238" value="PV&lt;br&gt;Thermal&lt;br&gt;Model" style="rounded=0;whiteSpace=wrap;html=1;" vertex="1" parent="1">
          <mxGeometry x="1634.06" y="-1970" width="80" height="160" as="geometry" />
        </mxCell>
        <mxCell id="8AssvYGJsJ_mRKbQOy9S-239" value="$$V_{pv}(t)$$" style="edgeStyle=orthogonalEdgeStyle;rounded=1;orthogonalLoop=1;jettySize=auto;html=1;exitX=1;exitY=0.75;exitDx=0;exitDy=0;entryX=0.5;entryY=1;entryDx=0;entryDy=0;curved=0;" edge="1" parent="1" source="8AssvYGJsJ_mRKbQOy9S-240" target="8AssvYGJsJ_mRKbQOy9S-247">
          <mxGeometry x="-0.8974" y="20" relative="1" as="geometry">
            <Array as="points">
              <mxPoint x="2074.06" y="-1840" />
              <mxPoint x="2074.06" y="-1770" />
              <mxPoint x="1834.06" y="-1770" />
            </Array>
            <mxPoint as="offset" />
          </mxGeometry>
        </mxCell>
        <mxCell id="8AssvYGJsJ_mRKbQOy9S-240" value="MPPT&lt;br&gt;Power" style="rounded=0;whiteSpace=wrap;html=1;" vertex="1" parent="1">
          <mxGeometry x="1954.06" y="-1930" width="80" height="120" as="geometry" />
        </mxCell>
        <mxCell id="8AssvYGJsJ_mRKbQOy9S-241" value="$$D_{MPPT}(t)$$" style="edgeStyle=orthogonalEdgeStyle;rounded=0;orthogonalLoop=1;jettySize=auto;html=1;exitX=0.5;exitY=1;exitDx=0;exitDy=0;" edge="1" parent="1" source="8AssvYGJsJ_mRKbQOy9S-242" target="8AssvYGJsJ_mRKbQOy9S-240">
          <mxGeometry x="-0.4" y="40" relative="1" as="geometry">
            <mxPoint as="offset" />
          </mxGeometry>
        </mxCell>
        <mxCell id="8AssvYGJsJ_mRKbQOy9S-242" value="MPPT&lt;br&gt;Controller" style="rounded=0;whiteSpace=wrap;html=1;" vertex="1" parent="1">
          <mxGeometry x="1954.06" y="-2160" width="80" height="130" as="geometry" />
        </mxCell>
        <mxCell id="8AssvYGJsJ_mRKbQOy9S-243" value="$$G(t)$$" style="endArrow=classic;html=1;elbow=vertical;entryX=0;entryY=0.25;entryDx=0;entryDy=0;" edge="1" parent="1" target="8AssvYGJsJ_mRKbQOy9S-238">
          <mxGeometry x="-1" y="-20" width="50" height="50" relative="1" as="geometry">
            <mxPoint x="1592.06" y="-1930" as="sourcePoint" />
            <mxPoint x="1622.06" y="-1950" as="targetPoint" />
            <mxPoint x="-20" y="-20" as="offset" />
          </mxGeometry>
        </mxCell>
        <mxCell id="8AssvYGJsJ_mRKbQOy9S-244" value="$$T_a(t)$$" style="endArrow=classic;html=1;elbow=vertical;entryX=0;entryY=0.75;entryDx=0;entryDy=0;" edge="1" parent="1" target="8AssvYGJsJ_mRKbQOy9S-238">
          <mxGeometry x="-1" y="-20" width="50" height="50" relative="1" as="geometry">
            <mxPoint x="1592.06" y="-1850.3400000000001" as="sourcePoint" />
            <mxPoint x="1632.06" y="-1850.3400000000001" as="targetPoint" />
            <mxPoint x="-20" y="-20" as="offset" />
          </mxGeometry>
        </mxCell>
        <mxCell id="8AssvYGJsJ_mRKbQOy9S-245" value="$$V_{w}(t)$$" style="endArrow=classic;html=1;elbow=vertical;entryX=0;entryY=0.5;entryDx=0;entryDy=0;" edge="1" parent="1" target="8AssvYGJsJ_mRKbQOy9S-238">
          <mxGeometry x="-1" y="20" width="50" height="50" relative="1" as="geometry">
            <mxPoint x="1592.06" y="-1890" as="sourcePoint" />
            <mxPoint x="1631.06" y="-1890.3400000000001" as="targetPoint" />
            <mxPoint x="-20" y="20" as="offset" />
          </mxGeometry>
        </mxCell>
        <mxCell id="8AssvYGJsJ_mRKbQOy9S-246" value="$$I_{pv}(t)$$" style="edgeStyle=orthogonalEdgeStyle;rounded=0;orthogonalLoop=1;jettySize=auto;html=1;exitX=1;exitY=0.75;exitDx=0;exitDy=0;" edge="1" parent="1" source="8AssvYGJsJ_mRKbQOy9S-247">
          <mxGeometry x="-0.0009" y="20" relative="1" as="geometry">
            <mxPoint x="1954.06" y="-1850" as="targetPoint" />
            <Array as="points">
              <mxPoint x="1954.06" y="-1850" />
            </Array>
            <mxPoint as="offset" />
          </mxGeometry>
        </mxCell>
        <mxCell id="8AssvYGJsJ_mRKbQOy9S-247" value="PV&lt;br&gt;Single&lt;br&gt;Diode&lt;br&gt;Model" style="rounded=0;whiteSpace=wrap;html=1;" vertex="1" parent="1">
          <mxGeometry x="1794.06" y="-1970" width="80" height="160" as="geometry" />
        </mxCell>
        <mxCell id="8AssvYGJsJ_mRKbQOy9S-251" value="$$I_{O,MPPT}(t)$$" style="edgeStyle=orthogonalEdgeStyle;html=1;exitX=1;exitY=0.25;exitDx=0;exitDy=0;entryX=0;entryY=0.5;entryDx=0;entryDy=0;elbow=vertical;" edge="1" parent="1">
          <mxGeometry x="0.2121" y="20" relative="1" as="geometry">
            <mxPoint as="offset" />
            <mxPoint x="2034.0299999999997" y="-1890" as="sourcePoint" />
            <mxPoint x="2099.0299999998683" y="-1890" as="targetPoint" />
          </mxGeometry>
        </mxCell>
        <mxCell id="8AssvYGJsJ_mRKbQOy9S-254" value="-" style="text;html=1;align=center;verticalAlign=middle;resizable=0;points=[];autosize=1;strokeColor=none;fillColor=none;" vertex="1" parent="1">
          <mxGeometry x="2090.03" y="-1905" width="30" height="30" as="geometry" />
        </mxCell>
        <mxCell id="8AssvYGJsJ_mRKbQOy9S-257" value="$$V_{BAT}(t)$$" style="edgeStyle=orthogonalEdgeStyle;rounded=1;orthogonalLoop=1;jettySize=auto;html=1;curved=0;" edge="1" parent="1">
          <mxGeometry x="-1" y="20" relative="1" as="geometry">
            <mxPoint x="1954.06" y="-1900" as="targetPoint" />
            <Array as="points">
              <mxPoint x="1954.06" y="-1900" />
            </Array>
            <mxPoint x="-20" y="-20" as="offset" />
            <mxPoint x="1914.06" y="-2010" as="sourcePoint" />
          </mxGeometry>
        </mxCell>
        <mxCell id="8AssvYGJsJ_mRKbQOy9S-258" value="$$V_{w}(t)$$" style="edgeStyle=orthogonalEdgeStyle;rounded=0;orthogonalLoop=1;jettySize=auto;html=1;exitX=1;exitY=0.5;exitDx=0;exitDy=0;" edge="1" parent="1" source="8AssvYGJsJ_mRKbQOy9S-262" target="8AssvYGJsJ_mRKbQOy9S-271">
          <mxGeometry x="0.0909" y="20" relative="1" as="geometry">
            <mxPoint x="1609.41" y="-1270.24" as="targetPoint" />
            <Array as="points" />
            <mxPoint as="offset" />
          </mxGeometry>
        </mxCell>
        <mxCell id="8AssvYGJsJ_mRKbQOy9S-259" value="$$G(t)$$" style="edgeStyle=orthogonalEdgeStyle;rounded=0;orthogonalLoop=1;jettySize=auto;html=1;exitX=1;exitY=0.25;exitDx=0;exitDy=0;entryX=0;entryY=0.25;entryDx=0;entryDy=0;" edge="1" parent="1" source="8AssvYGJsJ_mRKbQOy9S-262" target="8AssvYGJsJ_mRKbQOy9S-271">
          <mxGeometry x="0.0909" y="20" relative="1" as="geometry">
            <mxPoint as="offset" />
          </mxGeometry>
        </mxCell>
        <mxCell id="8AssvYGJsJ_mRKbQOy9S-260" value="$$T_c(t)$$" style="edgeStyle=orthogonalEdgeStyle;rounded=0;orthogonalLoop=1;jettySize=auto;html=1;exitX=1;exitY=0.75;exitDx=0;exitDy=0;entryX=0;entryY=0.75;entryDx=0;entryDy=0;" edge="1" parent="1" source="8AssvYGJsJ_mRKbQOy9S-262" target="8AssvYGJsJ_mRKbQOy9S-271">
          <mxGeometry x="0.0893" y="20" relative="1" as="geometry">
            <mxPoint as="offset" />
          </mxGeometry>
        </mxCell>
        <mxCell id="8AssvYGJsJ_mRKbQOy9S-261" value="" style="edgeStyle=orthogonalEdgeStyle;rounded=0;orthogonalLoop=1;jettySize=auto;html=1;" edge="1" parent="1" source="8AssvYGJsJ_mRKbQOy9S-262">
          <mxGeometry relative="1" as="geometry">
            <mxPoint x="1369.9699999999998" y="-1270" as="targetPoint" />
          </mxGeometry>
        </mxCell>
        <mxCell id="8AssvYGJsJ_mRKbQOy9S-262" value="PV&lt;br&gt;Thermal&lt;br&gt;Model" style="rounded=0;whiteSpace=wrap;html=1;" vertex="1" parent="1">
          <mxGeometry x="1449.97" y="-1350" width="80" height="160" as="geometry" />
        </mxCell>
        <mxCell id="8AssvYGJsJ_mRKbQOy9S-263" value="$$V_{pv}(t)$$" style="edgeStyle=orthogonalEdgeStyle;rounded=1;orthogonalLoop=1;jettySize=auto;html=1;exitX=1;exitY=0.75;exitDx=0;exitDy=0;entryX=0.5;entryY=1;entryDx=0;entryDy=0;curved=0;" edge="1" parent="1" source="8AssvYGJsJ_mRKbQOy9S-264" target="8AssvYGJsJ_mRKbQOy9S-271">
          <mxGeometry x="-0.8974" y="20" relative="1" as="geometry">
            <Array as="points">
              <mxPoint x="1889.97" y="-1220" />
              <mxPoint x="1889.97" y="-1150" />
              <mxPoint x="1649.97" y="-1150" />
            </Array>
            <mxPoint as="offset" />
          </mxGeometry>
        </mxCell>
        <mxCell id="8AssvYGJsJ_mRKbQOy9S-264" value="MPPT&lt;br&gt;Power" style="rounded=0;whiteSpace=wrap;html=1;" vertex="1" parent="1">
          <mxGeometry x="1769.97" y="-1310" width="80" height="120" as="geometry" />
        </mxCell>
        <mxCell id="8AssvYGJsJ_mRKbQOy9S-265" value="$$D_{MPPT}(t)$$" style="edgeStyle=orthogonalEdgeStyle;rounded=0;orthogonalLoop=1;jettySize=auto;html=1;exitX=0.5;exitY=1;exitDx=0;exitDy=0;" edge="1" parent="1" source="8AssvYGJsJ_mRKbQOy9S-266" target="8AssvYGJsJ_mRKbQOy9S-264">
          <mxGeometry x="-0.4" y="40" relative="1" as="geometry">
            <mxPoint as="offset" />
          </mxGeometry>
        </mxCell>
        <mxCell id="8AssvYGJsJ_mRKbQOy9S-266" value="MPPT&lt;br&gt;Controller" style="rounded=0;whiteSpace=wrap;html=1;" vertex="1" parent="1">
          <mxGeometry x="1769.97" y="-1530" width="80" height="120" as="geometry" />
        </mxCell>
        <mxCell id="8AssvYGJsJ_mRKbQOy9S-267" value="$$G(t)$$" style="endArrow=classic;html=1;elbow=vertical;entryX=0;entryY=0.25;entryDx=0;entryDy=0;" edge="1" parent="1" target="8AssvYGJsJ_mRKbQOy9S-262">
          <mxGeometry x="-1" y="-20" width="50" height="50" relative="1" as="geometry">
            <mxPoint x="1407.97" y="-1310" as="sourcePoint" />
            <mxPoint x="1437.97" y="-1330" as="targetPoint" />
            <mxPoint x="-20" y="-20" as="offset" />
          </mxGeometry>
        </mxCell>
        <mxCell id="8AssvYGJsJ_mRKbQOy9S-268" value="$$T_a(t)$$" style="endArrow=classic;html=1;elbow=vertical;entryX=0;entryY=0.75;entryDx=0;entryDy=0;" edge="1" parent="1" target="8AssvYGJsJ_mRKbQOy9S-262">
          <mxGeometry x="-1" y="-20" width="50" height="50" relative="1" as="geometry">
            <mxPoint x="1407.97" y="-1230.3400000000001" as="sourcePoint" />
            <mxPoint x="1447.97" y="-1230.3400000000001" as="targetPoint" />
            <mxPoint x="-20" y="-20" as="offset" />
          </mxGeometry>
        </mxCell>
        <mxCell id="8AssvYGJsJ_mRKbQOy9S-269" value="$$V_{w}(t)$$" style="endArrow=classic;html=1;elbow=vertical;entryX=0;entryY=0.5;entryDx=0;entryDy=0;" edge="1" parent="1" target="8AssvYGJsJ_mRKbQOy9S-262">
          <mxGeometry x="-1" y="20" width="50" height="50" relative="1" as="geometry">
            <mxPoint x="1407.97" y="-1270" as="sourcePoint" />
            <mxPoint x="1446.97" y="-1270.3400000000001" as="targetPoint" />
            <mxPoint x="-20" y="20" as="offset" />
          </mxGeometry>
        </mxCell>
        <mxCell id="8AssvYGJsJ_mRKbQOy9S-270" value="$$I_{pv}(t)$$" style="edgeStyle=orthogonalEdgeStyle;rounded=0;orthogonalLoop=1;jettySize=auto;html=1;exitX=1;exitY=0.75;exitDx=0;exitDy=0;" edge="1" parent="1" source="8AssvYGJsJ_mRKbQOy9S-271">
          <mxGeometry x="-0.0009" y="20" relative="1" as="geometry">
            <mxPoint x="1769.97" y="-1230" as="targetPoint" />
            <Array as="points">
              <mxPoint x="1769.97" y="-1230" />
            </Array>
            <mxPoint as="offset" />
          </mxGeometry>
        </mxCell>
        <mxCell id="8AssvYGJsJ_mRKbQOy9S-271" value="PV&lt;br&gt;Single&lt;br&gt;Diode&lt;br&gt;Model" style="rounded=0;whiteSpace=wrap;html=1;" vertex="1" parent="1">
          <mxGeometry x="1609.97" y="-1350" width="80" height="160" as="geometry" />
        </mxCell>
        <mxCell id="8AssvYGJsJ_mRKbQOy9S-272" value="$$V_A(t)$$" style="edgeStyle=orthogonalEdgeStyle;html=1;elbow=vertical;entryX=0;entryY=0.75;entryDx=0;entryDy=0;" edge="1" parent="1" source="8AssvYGJsJ_mRKbQOy9S-274" target="8AssvYGJsJ_mRKbQOy9S-277">
          <mxGeometry y="20" relative="1" as="geometry">
            <mxPoint as="offset" />
          </mxGeometry>
        </mxCell>
        <mxCell id="8AssvYGJsJ_mRKbQOy9S-273" value="$$I_{I, ESC}(t)$$" style="edgeStyle=orthogonalEdgeStyle;html=1;exitX=1;exitY=0.75;exitDx=0;exitDy=0;elbow=vertical;entryX=0.5;entryY=1;entryDx=0;entryDy=0;" edge="1" parent="1" source="8AssvYGJsJ_mRKbQOy9S-274" target="8AssvYGJsJ_mRKbQOy9S-288">
          <mxGeometry x="0.9259" y="-29" relative="1" as="geometry">
            <mxPoint x="1949.94" y="-1210" as="targetPoint" />
            <Array as="points">
              <mxPoint x="2329.94" y="-1240" />
              <mxPoint x="2329.94" y="-1130" />
              <mxPoint x="1929.94" y="-1130" />
              <mxPoint x="1929.94" y="-1255" />
            </Array>
            <mxPoint as="offset" />
          </mxGeometry>
        </mxCell>
        <mxCell id="8AssvYGJsJ_mRKbQOy9S-274" value="ESC" style="rounded=0;whiteSpace=wrap;html=1;" vertex="1" parent="1">
          <mxGeometry x="2209.94" y="-1330" width="80" height="120" as="geometry" />
        </mxCell>
        <mxCell id="8AssvYGJsJ_mRKbQOy9S-275" value="$$W_m(t)$$" style="edgeStyle=none;html=1;exitX=1;exitY=0.25;exitDx=0;exitDy=0;entryX=0;entryY=0.25;entryDx=0;entryDy=0;" edge="1" parent="1" source="8AssvYGJsJ_mRKbQOy9S-277" target="8AssvYGJsJ_mRKbQOy9S-296">
          <mxGeometry y="20" relative="1" as="geometry">
            <mxPoint x="2499.94" y="-1300" as="targetPoint" />
            <mxPoint as="offset" />
          </mxGeometry>
        </mxCell>
        <mxCell id="8AssvYGJsJ_mRKbQOy9S-276" value="$$I_{a}(t)$$" style="edgeStyle=orthogonalEdgeStyle;html=1;exitX=1;exitY=0.75;exitDx=0;exitDy=0;entryX=0;entryY=0.75;entryDx=0;entryDy=0;elbow=vertical;" edge="1" parent="1" source="8AssvYGJsJ_mRKbQOy9S-277" target="8AssvYGJsJ_mRKbQOy9S-274">
          <mxGeometry x="0.8462" y="20" relative="1" as="geometry">
            <Array as="points">
              <mxPoint x="2489.94" y="-1270" />
              <mxPoint x="2489.94" y="-1170" />
              <mxPoint x="2169.94" y="-1170" />
              <mxPoint x="2169.94" y="-1240" />
            </Array>
            <mxPoint as="offset" />
          </mxGeometry>
        </mxCell>
        <mxCell id="8AssvYGJsJ_mRKbQOy9S-277" value="Motor" style="rounded=0;whiteSpace=wrap;html=1;" vertex="1" parent="1">
          <mxGeometry x="2369.94" y="-1330" width="80" height="80" as="geometry" />
        </mxCell>
        <mxCell id="8AssvYGJsJ_mRKbQOy9S-278" value="$$T_p(t)$$" style="edgeStyle=orthogonalEdgeStyle;html=1;exitX=1;exitY=0.75;exitDx=0;exitDy=0;entryX=0;entryY=0.75;entryDx=0;entryDy=0;elbow=vertical;" edge="1" parent="1" source="8AssvYGJsJ_mRKbQOy9S-280" target="8AssvYGJsJ_mRKbQOy9S-296">
          <mxGeometry x="-0.7692" y="-20" relative="1" as="geometry">
            <Array as="points">
              <mxPoint x="2849.94" y="-1270" />
              <mxPoint x="2849.94" y="-1210" />
              <mxPoint x="2529.94" y="-1210" />
              <mxPoint x="2529.94" y="-1270" />
            </Array>
            <mxPoint as="offset" />
          </mxGeometry>
        </mxCell>
        <mxCell id="8AssvYGJsJ_mRKbQOy9S-280" value="Propeller" style="rounded=0;whiteSpace=wrap;html=1;" vertex="1" parent="1">
          <mxGeometry x="2729.94" y="-1330" width="80" height="80" as="geometry" />
        </mxCell>
        <mxCell id="8AssvYGJsJ_mRKbQOy9S-281" value="$$V_{BAT}(t)$$" style="edgeStyle=orthogonalEdgeStyle;html=1;exitX=1;exitY=0.5;exitDx=0;exitDy=0;elbow=vertical;entryX=0;entryY=0.5;entryDx=0;entryDy=0;" edge="1" parent="1" source="8AssvYGJsJ_mRKbQOy9S-285" target="8AssvYGJsJ_mRKbQOy9S-274">
          <mxGeometry x="0.4999" y="20" relative="1" as="geometry">
            <mxPoint x="2089.94" y="-1300" as="sourcePoint" />
            <Array as="points">
              <mxPoint x="2069.94" y="-1270" />
              <mxPoint x="2069.94" y="-1270" />
            </Array>
            <mxPoint as="offset" />
          </mxGeometry>
        </mxCell>
        <mxCell id="8AssvYGJsJ_mRKbQOy9S-282" value="$$D_{ESC}(t)$$" style="endArrow=classic;html=1;elbow=vertical;entryX=0.5;entryY=0;entryDx=0;entryDy=0;" edge="1" parent="1" target="8AssvYGJsJ_mRKbQOy9S-274">
          <mxGeometry x="-0.5" y="30" width="50" height="50" relative="1" as="geometry">
            <mxPoint x="2249.94" y="-1370" as="sourcePoint" />
            <mxPoint x="2209.94" y="-1420" as="targetPoint" />
            <mxPoint as="offset" />
          </mxGeometry>
        </mxCell>
        <mxCell id="8AssvYGJsJ_mRKbQOy9S-283" value="$$V_{BAT}(t)$$" style="edgeStyle=orthogonalEdgeStyle;html=1;exitX=1;exitY=0.5;exitDx=0;exitDy=0;entryX=0;entryY=0.25;entryDx=0;entryDy=0;elbow=vertical;" edge="1" parent="1" source="8AssvYGJsJ_mRKbQOy9S-285">
          <mxGeometry x="0.5311" y="20" relative="1" as="geometry">
            <Array as="points">
              <mxPoint x="2129.94" y="-1270" />
              <mxPoint x="2129.94" y="-1350" />
              <mxPoint x="1729.94" y="-1350" />
              <mxPoint x="1729.94" y="-1270" />
            </Array>
            <mxPoint x="1769.9399999999998" y="-1270" as="targetPoint" />
            <mxPoint as="offset" />
          </mxGeometry>
        </mxCell>
        <mxCell id="8AssvYGJsJ_mRKbQOy9S-284" value="$$SOC(t)$$" style="edgeStyle=orthogonalEdgeStyle;html=1;exitX=0.5;exitY=1;exitDx=0;exitDy=0;elbow=vertical;" edge="1" parent="1">
          <mxGeometry y="30" relative="1" as="geometry">
            <mxPoint x="2049.94" y="-1190" as="targetPoint" />
            <mxPoint as="offset" />
            <mxPoint x="2049.94" y="-1230" as="sourcePoint" />
          </mxGeometry>
        </mxCell>
        <mxCell id="8AssvYGJsJ_mRKbQOy9S-285" value="Battery" style="rounded=0;whiteSpace=wrap;html=1;" vertex="1" parent="1">
          <mxGeometry x="2009.94" y="-1310" width="80" height="80" as="geometry" />
        </mxCell>
        <mxCell id="8AssvYGJsJ_mRKbQOy9S-286" value="$$I_{O,MPPT}(t)$$" style="edgeStyle=orthogonalEdgeStyle;html=1;exitX=1;exitY=0.25;exitDx=0;exitDy=0;entryX=0;entryY=0.5;entryDx=0;entryDy=0;elbow=vertical;" edge="1" parent="1" target="8AssvYGJsJ_mRKbQOy9S-288">
          <mxGeometry x="0.2353" y="20" relative="1" as="geometry">
            <mxPoint as="offset" />
            <mxPoint x="1849.9399999999998" y="-1270" as="sourcePoint" />
          </mxGeometry>
        </mxCell>
        <mxCell id="8AssvYGJsJ_mRKbQOy9S-287" value="$$I_{BAT}(t)$$" style="edgeStyle=orthogonalEdgeStyle;html=1;elbow=vertical;" edge="1" parent="1" source="8AssvYGJsJ_mRKbQOy9S-288" target="8AssvYGJsJ_mRKbQOy9S-285">
          <mxGeometry x="0.0498" y="20" relative="1" as="geometry">
            <mxPoint as="offset" />
          </mxGeometry>
        </mxCell>
        <mxCell id="8AssvYGJsJ_mRKbQOy9S-288" value="" style="shape=sumEllipse;perimeter=ellipsePerimeter;whiteSpace=wrap;html=1;backgroundOutline=1;" vertex="1" parent="1">
          <mxGeometry x="1914.94" y="-1285" width="30" height="30" as="geometry" />
        </mxCell>
        <mxCell id="8AssvYGJsJ_mRKbQOy9S-289" value="-" style="text;html=1;align=center;verticalAlign=middle;resizable=0;points=[];autosize=1;strokeColor=none;fillColor=none;" vertex="1" parent="1">
          <mxGeometry x="1905.94" y="-1285" width="30" height="30" as="geometry" />
        </mxCell>
        <mxCell id="8AssvYGJsJ_mRKbQOy9S-290" value="+" style="text;html=1;align=center;verticalAlign=middle;resizable=0;points=[];autosize=1;strokeColor=none;fillColor=none;" vertex="1" parent="1">
          <mxGeometry x="1914.94" y="-1277" width="30" height="30" as="geometry" />
        </mxCell>
        <mxCell id="8AssvYGJsJ_mRKbQOy9S-294" value="$$W_p(t)$$" style="edgeStyle=orthogonalEdgeStyle;html=1;exitX=1;exitY=0.75;exitDx=0;exitDy=0;elbow=vertical;entryX=0;entryY=0.75;entryDx=0;entryDy=0;" edge="1" parent="1" source="8AssvYGJsJ_mRKbQOy9S-296" target="8AssvYGJsJ_mRKbQOy9S-280">
          <mxGeometry y="-20" relative="1" as="geometry">
            <mxPoint as="offset" />
          </mxGeometry>
        </mxCell>
        <mxCell id="8AssvYGJsJ_mRKbQOy9S-295" value="$$T_m(t)$$" style="edgeStyle=orthogonalEdgeStyle;html=1;exitX=1;exitY=0.25;exitDx=0;exitDy=0;entryX=0;entryY=0.25;entryDx=0;entryDy=0;elbow=vertical;" edge="1" parent="1" source="8AssvYGJsJ_mRKbQOy9S-296" target="8AssvYGJsJ_mRKbQOy9S-277">
          <mxGeometry x="-0.7857" y="20" relative="1" as="geometry">
            <Array as="points">
              <mxPoint x="2689.94" y="-1310" />
              <mxPoint x="2689.94" y="-1370" />
              <mxPoint x="2329.94" y="-1370" />
              <mxPoint x="2329.94" y="-1310" />
            </Array>
            <mxPoint as="offset" />
          </mxGeometry>
        </mxCell>
        <mxCell id="8AssvYGJsJ_mRKbQOy9S-296" value="Transmission" style="rounded=0;whiteSpace=wrap;html=1;" vertex="1" parent="1">
          <mxGeometry x="2569.94" y="-1330" width="80" height="80" as="geometry" />
        </mxCell>
        <mxCell id="8AssvYGJsJ_mRKbQOy9S-297" value="$$SOC(t)$$" style="edgeStyle=orthogonalEdgeStyle;html=1;exitX=0.5;exitY=1;exitDx=0;exitDy=0;elbow=vertical;" edge="1" parent="1">
          <mxGeometry y="30" relative="1" as="geometry">
            <mxPoint x="1819.06" y="-2300" as="targetPoint" />
            <mxPoint as="offset" />
            <mxPoint x="1819.06" y="-2340" as="sourcePoint" />
          </mxGeometry>
        </mxCell>
        <mxCell id="8AssvYGJsJ_mRKbQOy9S-298" value="Battery" style="rounded=0;whiteSpace=wrap;html=1;" vertex="1" parent="1">
          <mxGeometry x="1779.06" y="-2420" width="80" height="80" as="geometry" />
        </mxCell>
        <mxCell id="8AssvYGJsJ_mRKbQOy9S-299" value="$$I_{BAT}(t)$$" style="edgeStyle=orthogonalEdgeStyle;html=1;elbow=vertical;" edge="1" parent="1" target="8AssvYGJsJ_mRKbQOy9S-298">
          <mxGeometry x="0.0625" y="20" relative="1" as="geometry">
            <mxPoint as="offset" />
            <mxPoint x="1714.0900000000001" y="-2380" as="sourcePoint" />
          </mxGeometry>
        </mxCell>
        <mxCell id="8AssvYGJsJ_mRKbQOy9S-300" value="$$V_{BAT}(t)$$" style="edgeStyle=orthogonalEdgeStyle;html=1;elbow=vertical;" edge="1" parent="1">
          <mxGeometry x="0.0625" y="20" relative="1" as="geometry">
            <mxPoint as="offset" />
            <mxPoint x="1859.06" y="-2380.24" as="sourcePoint" />
            <mxPoint x="1924.06" y="-2380.24" as="targetPoint" />
          </mxGeometry>
        </mxCell>
        <mxCell id="8AssvYGJsJ_mRKbQOy9S-301" value="2. BATTERY: TESTADO, FUNCIONAL" style="text;html=1;align=left;verticalAlign=middle;resizable=0;points=[];autosize=1;strokeColor=none;fillColor=none;strokeWidth=1;fontSize=16;fontStyle=1" vertex="1" parent="1">
          <mxGeometry x="1279.06" y="-2500" width="300" height="30" as="geometry" />
        </mxCell>
        <mxCell id="8AssvYGJsJ_mRKbQOy9S-302" value="3. GENERATION: TESTADO, FUNCIONAL" style="text;html=1;align=left;verticalAlign=middle;resizable=0;points=[];autosize=1;strokeColor=none;fillColor=none;strokeWidth=1;fontSize=16;fontStyle=1" vertex="1" parent="1">
          <mxGeometry x="1279.06" y="-2220" width="330" height="30" as="geometry" />
        </mxCell>
        <mxCell id="8AssvYGJsJ_mRKbQOy9S-303" value="5.BATTERY+PROPULSION: TESTADO, FUNCTIONAL" style="text;html=1;align=left;verticalAlign=middle;resizable=0;points=[];autosize=1;strokeColor=none;fillColor=none;strokeWidth=1;fontSize=16;fontStyle=1" vertex="1" parent="1">
          <mxGeometry x="1279.06" y="-1000" width="420" height="30" as="geometry" />
        </mxCell>
        <mxCell id="8AssvYGJsJ_mRKbQOy9S-305" value="6. GENERATION+BATTERY: TESTADO, ERRRO &quot;ALGEBRIC LOOP&quot;&amp;nbsp;" style="text;html=1;align=left;verticalAlign=middle;resizable=0;points=[];autosize=1;strokeColor=none;fillColor=none;strokeWidth=1;fontSize=16;fontStyle=1" vertex="1" parent="1">
          <mxGeometry x="1279.06" y="-470" width="540" height="30" as="geometry" />
        </mxCell>
        <mxCell id="8AssvYGJsJ_mRKbQOy9S-306" value="7. PV+MPPT+BATTERY: TESTAR" style="text;html=1;align=left;verticalAlign=middle;resizable=0;points=[];autosize=1;strokeColor=none;fillColor=none;strokeWidth=1;fontSize=16;fontStyle=1" vertex="1" parent="1">
          <mxGeometry x="1279.06" y="130" width="270" height="30" as="geometry" />
        </mxCell>
        <mxCell id="8AssvYGJsJ_mRKbQOy9S-307" value="$$V_{w}(t)$$" style="edgeStyle=orthogonalEdgeStyle;rounded=0;orthogonalLoop=1;jettySize=auto;html=1;exitX=1;exitY=0.5;exitDx=0;exitDy=0;" edge="1" parent="1" source="8AssvYGJsJ_mRKbQOy9S-311" target="8AssvYGJsJ_mRKbQOy9S-320">
          <mxGeometry x="0.0909" y="20" relative="1" as="geometry">
            <mxPoint x="1659.4600000000003" y="419.76" as="targetPoint" />
            <Array as="points" />
            <mxPoint as="offset" />
          </mxGeometry>
        </mxCell>
        <mxCell id="8AssvYGJsJ_mRKbQOy9S-308" value="$$G(t)$$" style="edgeStyle=orthogonalEdgeStyle;rounded=0;orthogonalLoop=1;jettySize=auto;html=1;exitX=1;exitY=0.25;exitDx=0;exitDy=0;entryX=0;entryY=0.25;entryDx=0;entryDy=0;" edge="1" parent="1" source="8AssvYGJsJ_mRKbQOy9S-311" target="8AssvYGJsJ_mRKbQOy9S-320">
          <mxGeometry x="0.0909" y="20" relative="1" as="geometry">
            <mxPoint as="offset" />
          </mxGeometry>
        </mxCell>
        <mxCell id="8AssvYGJsJ_mRKbQOy9S-309" value="$$T_c(t)$$" style="edgeStyle=orthogonalEdgeStyle;rounded=0;orthogonalLoop=1;jettySize=auto;html=1;exitX=1;exitY=0.75;exitDx=0;exitDy=0;entryX=0;entryY=0.75;entryDx=0;entryDy=0;" edge="1" parent="1" source="8AssvYGJsJ_mRKbQOy9S-311" target="8AssvYGJsJ_mRKbQOy9S-320">
          <mxGeometry x="0.0909" y="20" relative="1" as="geometry">
            <mxPoint as="offset" />
          </mxGeometry>
        </mxCell>
        <mxCell id="8AssvYGJsJ_mRKbQOy9S-310" value="" style="edgeStyle=orthogonalEdgeStyle;rounded=0;orthogonalLoop=1;jettySize=auto;html=1;" edge="1" parent="1" source="8AssvYGJsJ_mRKbQOy9S-311">
          <mxGeometry relative="1" as="geometry">
            <mxPoint x="1420.0199999999998" y="420.0000000000001" as="targetPoint" />
          </mxGeometry>
        </mxCell>
        <mxCell id="8AssvYGJsJ_mRKbQOy9S-311" value="PV&lt;br&gt;Thermal&lt;br&gt;Model" style="rounded=0;whiteSpace=wrap;html=1;" vertex="1" parent="1">
          <mxGeometry x="1500.0200000000002" y="340" width="80" height="160" as="geometry" />
        </mxCell>
        <mxCell id="8AssvYGJsJ_mRKbQOy9S-312" value="$$V_{pv}(t)$$" style="edgeStyle=orthogonalEdgeStyle;rounded=1;orthogonalLoop=1;jettySize=auto;html=1;exitX=1;exitY=0.75;exitDx=0;exitDy=0;entryX=0.5;entryY=1;entryDx=0;entryDy=0;curved=0;" edge="1" parent="1" source="8AssvYGJsJ_mRKbQOy9S-313" target="8AssvYGJsJ_mRKbQOy9S-320">
          <mxGeometry x="-0.8974" y="20" relative="1" as="geometry">
            <Array as="points">
              <mxPoint x="1940.0200000000002" y="470" />
              <mxPoint x="1940.0200000000002" y="540" />
              <mxPoint x="1700.0200000000002" y="540" />
            </Array>
            <mxPoint as="offset" />
          </mxGeometry>
        </mxCell>
        <mxCell id="8AssvYGJsJ_mRKbQOy9S-313" value="MPPT&lt;br&gt;Power" style="rounded=0;whiteSpace=wrap;html=1;" vertex="1" parent="1">
          <mxGeometry x="1820.0200000000002" y="380" width="80" height="120" as="geometry" />
        </mxCell>
        <mxCell id="8AssvYGJsJ_mRKbQOy9S-314" value="$$D_{MPPT}(t)$$" style="edgeStyle=orthogonalEdgeStyle;rounded=0;orthogonalLoop=1;jettySize=auto;html=1;exitX=0.5;exitY=1;exitDx=0;exitDy=0;" edge="1" parent="1" target="8AssvYGJsJ_mRKbQOy9S-313">
          <mxGeometry x="-1" y="20" relative="1" as="geometry">
            <mxPoint x="-20" y="-20" as="offset" />
            <mxPoint x="1860.0200000000004" y="280" as="sourcePoint" />
          </mxGeometry>
        </mxCell>
        <mxCell id="8AssvYGJsJ_mRKbQOy9S-316" value="$$G(t)$$" style="endArrow=classic;html=1;elbow=vertical;entryX=0;entryY=0.25;entryDx=0;entryDy=0;" edge="1" parent="1" target="8AssvYGJsJ_mRKbQOy9S-311">
          <mxGeometry x="-1" y="-20" width="50" height="50" relative="1" as="geometry">
            <mxPoint x="1458.0200000000002" y="380" as="sourcePoint" />
            <mxPoint x="1488.0200000000002" y="360" as="targetPoint" />
            <mxPoint x="-20" y="-20" as="offset" />
          </mxGeometry>
        </mxCell>
        <mxCell id="8AssvYGJsJ_mRKbQOy9S-317" value="$$T_a(t)$$" style="endArrow=classic;html=1;elbow=vertical;entryX=0;entryY=0.75;entryDx=0;entryDy=0;" edge="1" parent="1" target="8AssvYGJsJ_mRKbQOy9S-311">
          <mxGeometry x="-1" y="-20" width="50" height="50" relative="1" as="geometry">
            <mxPoint x="1458.0200000000002" y="459.65999999999997" as="sourcePoint" />
            <mxPoint x="1498.0200000000002" y="459.65999999999997" as="targetPoint" />
            <mxPoint x="-20" y="-20" as="offset" />
          </mxGeometry>
        </mxCell>
        <mxCell id="8AssvYGJsJ_mRKbQOy9S-318" value="$$V_{w}(t)$$" style="endArrow=classic;html=1;elbow=vertical;entryX=0;entryY=0.5;entryDx=0;entryDy=0;" edge="1" parent="1" target="8AssvYGJsJ_mRKbQOy9S-311">
          <mxGeometry x="-1" y="20" width="50" height="50" relative="1" as="geometry">
            <mxPoint x="1458.0200000000002" y="420" as="sourcePoint" />
            <mxPoint x="1497.0200000000002" y="419.65999999999997" as="targetPoint" />
            <mxPoint x="-20" y="20" as="offset" />
          </mxGeometry>
        </mxCell>
        <mxCell id="8AssvYGJsJ_mRKbQOy9S-319" value="$$I_{pv}(t)$$" style="edgeStyle=orthogonalEdgeStyle;rounded=0;orthogonalLoop=1;jettySize=auto;html=1;exitX=1;exitY=0.75;exitDx=0;exitDy=0;" edge="1" parent="1" source="8AssvYGJsJ_mRKbQOy9S-320">
          <mxGeometry x="-0.0009" y="20" relative="1" as="geometry">
            <mxPoint x="1820.0200000000002" y="460" as="targetPoint" />
            <Array as="points">
              <mxPoint x="1820.0200000000002" y="460" />
            </Array>
            <mxPoint as="offset" />
          </mxGeometry>
        </mxCell>
        <mxCell id="8AssvYGJsJ_mRKbQOy9S-320" value="PV&lt;br&gt;Single&lt;br&gt;Diode&lt;br&gt;Model" style="rounded=0;whiteSpace=wrap;html=1;" vertex="1" parent="1">
          <mxGeometry x="1660.0200000000002" y="340" width="80" height="160" as="geometry" />
        </mxCell>
        <mxCell id="8AssvYGJsJ_mRKbQOy9S-321" value="$$V_{BAT}(t)$$" style="edgeStyle=orthogonalEdgeStyle;html=1;exitX=1;exitY=0.5;exitDx=0;exitDy=0;entryX=0;entryY=0.25;entryDx=0;entryDy=0;elbow=vertical;" edge="1" parent="1" source="8AssvYGJsJ_mRKbQOy9S-323">
          <mxGeometry x="0.5312" y="20" relative="1" as="geometry">
            <Array as="points">
              <mxPoint x="2179.99" y="420" />
              <mxPoint x="2179.99" y="340" />
              <mxPoint x="1779.99" y="340" />
              <mxPoint x="1779.99" y="420" />
            </Array>
            <mxPoint x="1819.99" y="420" as="targetPoint" />
            <mxPoint as="offset" />
          </mxGeometry>
        </mxCell>
        <mxCell id="8AssvYGJsJ_mRKbQOy9S-322" value="$$SOC(t)$$" style="edgeStyle=orthogonalEdgeStyle;html=1;exitX=0.5;exitY=1;exitDx=0;exitDy=0;elbow=vertical;" edge="1" parent="1">
          <mxGeometry y="30" relative="1" as="geometry">
            <mxPoint x="2099.99" y="500" as="targetPoint" />
            <mxPoint as="offset" />
            <mxPoint x="2099.99" y="460" as="sourcePoint" />
          </mxGeometry>
        </mxCell>
        <mxCell id="8AssvYGJsJ_mRKbQOy9S-323" value="Battery" style="rounded=0;whiteSpace=wrap;html=1;" vertex="1" parent="1">
          <mxGeometry x="2059.99" y="380" width="80" height="80" as="geometry" />
        </mxCell>
        <mxCell id="8AssvYGJsJ_mRKbQOy9S-324" value="$$I_{O,MPPT}(t)$$" style="edgeStyle=orthogonalEdgeStyle;html=1;exitX=1;exitY=0.25;exitDx=0;exitDy=0;entryX=0;entryY=0.5;entryDx=0;entryDy=0;elbow=vertical;" edge="1" parent="1" target="8AssvYGJsJ_mRKbQOy9S-323">
          <mxGeometry x="0.2121" y="20" relative="1" as="geometry">
            <mxPoint as="offset" />
            <mxPoint x="1899.99" y="420" as="sourcePoint" />
            <mxPoint x="1964.99" y="420" as="targetPoint" />
          </mxGeometry>
        </mxCell>
        <mxCell id="8AssvYGJsJ_mRKbQOy9S-325" value="&lt;span style=&quot;color: rgb(240, 240, 240); font-family: Helvetica; font-size: 11px; font-style: normal; font-variant-ligatures: normal; font-variant-caps: normal; font-weight: 400; letter-spacing: normal; orphans: 2; text-align: center; text-indent: 0px; text-transform: none; widows: 2; word-spacing: 0px; -webkit-text-stroke-width: 0px; background-color: rgb(24, 20, 29); text-decoration-thickness: initial; text-decoration-style: initial; text-decoration-color: initial; float: none; display: inline !important;&quot;&gt;$$V_{BAT}(t)$$&lt;/span&gt;" style="text;whiteSpace=wrap;html=1;" vertex="1" parent="1">
          <mxGeometry x="2149.99" y="413" width="110" height="40" as="geometry" />
        </mxCell>
        <mxCell id="8AssvYGJsJ_mRKbQOy9S-326" value="25/01/24" style="text;html=1;align=center;verticalAlign=middle;resizable=0;points=[];autosize=1;strokeColor=none;fillColor=none;" vertex="1" parent="1">
          <mxGeometry x="1905.94" y="-1620" width="70" height="30" as="geometry" />
        </mxCell>
        <mxCell id="8AssvYGJsJ_mRKbQOy9S-327" value="$$V_{BAT}(t)$$" style="edgeStyle=orthogonalEdgeStyle;html=1;elbow=vertical;entryX=0;entryY=0.75;entryDx=0;entryDy=0;" edge="1" parent="1">
          <mxGeometry y="20" relative="1" as="geometry">
            <mxPoint as="offset" />
            <mxPoint x="1474.06" y="-2700" as="sourcePoint" />
            <mxPoint x="1554.06" y="-2700" as="targetPoint" />
          </mxGeometry>
        </mxCell>
        <mxCell id="8AssvYGJsJ_mRKbQOy9S-328" value="" style="edgeStyle=orthogonalEdgeStyle;rounded=0;orthogonalLoop=1;jettySize=auto;html=1;" edge="1" parent="1">
          <mxGeometry relative="1" as="geometry">
            <mxPoint x="1874.0599999999997" y="-2110" as="targetPoint" />
            <mxPoint x="1954" y="-2110" as="sourcePoint" />
          </mxGeometry>
        </mxCell>
        <mxCell id="8AssvYGJsJ_mRKbQOy9S-329" value="$$G(t)$$" style="endArrow=classic;html=1;elbow=vertical;entryX=0;entryY=0.25;entryDx=0;entryDy=0;" edge="1" parent="1">
          <mxGeometry x="-1" y="-20" width="50" height="50" relative="1" as="geometry">
            <mxPoint x="1912.06" y="-2150" as="sourcePoint" />
            <mxPoint x="1954" y="-2150" as="targetPoint" />
            <mxPoint x="-20" y="-20" as="offset" />
          </mxGeometry>
        </mxCell>
        <mxCell id="8AssvYGJsJ_mRKbQOy9S-330" value="$$T_a(t)$$" style="endArrow=classic;html=1;elbow=vertical;entryX=0;entryY=0.75;entryDx=0;entryDy=0;" edge="1" parent="1">
          <mxGeometry x="-1" y="-20" width="50" height="50" relative="1" as="geometry">
            <mxPoint x="1912.06" y="-2070.34" as="sourcePoint" />
            <mxPoint x="1954" y="-2070" as="targetPoint" />
            <mxPoint x="-20" y="-20" as="offset" />
          </mxGeometry>
        </mxCell>
        <mxCell id="8AssvYGJsJ_mRKbQOy9S-331" value="$$V_{w}(t)$$" style="endArrow=classic;html=1;elbow=vertical;entryX=0;entryY=0.5;entryDx=0;entryDy=0;" edge="1" parent="1">
          <mxGeometry x="-1" y="20" width="50" height="50" relative="1" as="geometry">
            <mxPoint x="1912.06" y="-2110" as="sourcePoint" />
            <mxPoint x="1954" y="-2110" as="targetPoint" />
            <mxPoint x="-20" y="20" as="offset" />
          </mxGeometry>
        </mxCell>
        <mxCell id="8AssvYGJsJ_mRKbQOy9S-332" value="" style="edgeStyle=orthogonalEdgeStyle;rounded=0;orthogonalLoop=1;jettySize=auto;html=1;" edge="1" parent="1">
          <mxGeometry relative="1" as="geometry">
            <mxPoint x="1689.9699999999998" y="-1470" as="targetPoint" />
            <mxPoint x="1770" y="-1470" as="sourcePoint" />
          </mxGeometry>
        </mxCell>
        <mxCell id="8AssvYGJsJ_mRKbQOy9S-333" value="$$G(t)$$" style="endArrow=classic;html=1;elbow=vertical;entryX=0;entryY=0.25;entryDx=0;entryDy=0;" edge="1" parent="1">
          <mxGeometry x="-1" y="-20" width="50" height="50" relative="1" as="geometry">
            <mxPoint x="1727.97" y="-1510" as="sourcePoint" />
            <mxPoint x="1770" y="-1510" as="targetPoint" />
            <mxPoint x="-20" y="-20" as="offset" />
          </mxGeometry>
        </mxCell>
        <mxCell id="8AssvYGJsJ_mRKbQOy9S-334" value="$$T_a(t)$$" style="endArrow=classic;html=1;elbow=vertical;entryX=0;entryY=0.75;entryDx=0;entryDy=0;" edge="1" parent="1">
          <mxGeometry x="-1" y="-20" width="50" height="50" relative="1" as="geometry">
            <mxPoint x="1727.97" y="-1430.3400000000001" as="sourcePoint" />
            <mxPoint x="1770" y="-1430" as="targetPoint" />
            <mxPoint x="-20" y="-20" as="offset" />
          </mxGeometry>
        </mxCell>
        <mxCell id="8AssvYGJsJ_mRKbQOy9S-335" value="$$V_{w}(t)$$" style="endArrow=classic;html=1;elbow=vertical;entryX=0;entryY=0.5;entryDx=0;entryDy=0;" edge="1" parent="1">
          <mxGeometry x="-1" y="20" width="50" height="50" relative="1" as="geometry">
            <mxPoint x="1727.97" y="-1470" as="sourcePoint" />
            <mxPoint x="1770" y="-1470" as="targetPoint" />
            <mxPoint x="-20" y="20" as="offset" />
          </mxGeometry>
        </mxCell>
        <mxCell id="8AssvYGJsJ_mRKbQOy9S-344" value="" style="edgeStyle=orthogonalEdgeStyle;rounded=0;orthogonalLoop=1;jettySize=auto;html=1;" edge="1" parent="1">
          <mxGeometry relative="1" as="geometry">
            <mxPoint x="1935.9699999999998" y="820.0000000000001" as="targetPoint" />
            <mxPoint x="2015.9700000000005" y="820.0588235294117" as="sourcePoint" />
          </mxGeometry>
        </mxCell>
        <mxCell id="8AssvYGJsJ_mRKbQOy9S-347" value="Generation" style="rounded=0;whiteSpace=wrap;html=1;" vertex="1" parent="1">
          <mxGeometry x="2015.97" y="700" width="80" height="200" as="geometry" />
        </mxCell>
        <mxCell id="8AssvYGJsJ_mRKbQOy9S-349" value="$$G(t)$$" style="endArrow=classic;html=1;elbow=vertical;entryX=0;entryY=0.25;entryDx=0;entryDy=0;" edge="1" parent="1">
          <mxGeometry x="-1" y="-20" width="50" height="50" relative="1" as="geometry">
            <mxPoint x="1973.9700000000003" y="780" as="sourcePoint" />
            <mxPoint x="2015.9700000000005" y="780" as="targetPoint" />
            <mxPoint x="-20" y="-20" as="offset" />
          </mxGeometry>
        </mxCell>
        <mxCell id="8AssvYGJsJ_mRKbQOy9S-350" value="$$T_a(t)$$" style="endArrow=classic;html=1;elbow=vertical;entryX=0;entryY=0.75;entryDx=0;entryDy=0;" edge="1" parent="1">
          <mxGeometry x="-1" y="-20" width="50" height="50" relative="1" as="geometry">
            <mxPoint x="1973.9700000000003" y="859.66" as="sourcePoint" />
            <mxPoint x="2015.9700000000005" y="860" as="targetPoint" />
            <mxPoint x="-20" y="-20" as="offset" />
          </mxGeometry>
        </mxCell>
        <mxCell id="8AssvYGJsJ_mRKbQOy9S-351" value="$$V_{w}(t)$$" style="endArrow=classic;html=1;elbow=vertical;entryX=0;entryY=0.5;entryDx=0;entryDy=0;" edge="1" parent="1">
          <mxGeometry x="-1" y="20" width="50" height="50" relative="1" as="geometry">
            <mxPoint x="1973.9700000000003" y="820" as="sourcePoint" />
            <mxPoint x="2015.9700000000005" y="820" as="targetPoint" />
            <mxPoint x="-20" y="20" as="offset" />
          </mxGeometry>
        </mxCell>
        <mxCell id="8AssvYGJsJ_mRKbQOy9S-354" value="$$V_{BAT}(t)$$" style="edgeStyle=orthogonalEdgeStyle;html=1;exitX=1;exitY=0.5;exitDx=0;exitDy=0;entryX=0;entryY=0.25;entryDx=0;entryDy=0;elbow=vertical;" edge="1" parent="1" source="8AssvYGJsJ_mRKbQOy9S-356">
          <mxGeometry x="0.5312" y="20" relative="1" as="geometry">
            <Array as="points">
              <mxPoint x="2375.9399999999996" y="740" />
              <mxPoint x="2375.9399999999996" y="660" />
              <mxPoint x="1975.94" y="660" />
              <mxPoint x="1975.94" y="740" />
            </Array>
            <mxPoint x="2015.94" y="740" as="targetPoint" />
            <mxPoint as="offset" />
          </mxGeometry>
        </mxCell>
        <mxCell id="8AssvYGJsJ_mRKbQOy9S-355" value="$$SOC(t)$$" style="edgeStyle=orthogonalEdgeStyle;html=1;exitX=0.5;exitY=1;exitDx=0;exitDy=0;elbow=vertical;" edge="1" parent="1">
          <mxGeometry y="30" relative="1" as="geometry">
            <mxPoint x="2295.9399999999996" y="820" as="targetPoint" />
            <mxPoint as="offset" />
            <mxPoint x="2295.9399999999996" y="780" as="sourcePoint" />
          </mxGeometry>
        </mxCell>
        <mxCell id="8AssvYGJsJ_mRKbQOy9S-356" value="Battery" style="rounded=0;whiteSpace=wrap;html=1;" vertex="1" parent="1">
          <mxGeometry x="2255.9399999999996" y="700" width="80" height="80" as="geometry" />
        </mxCell>
        <mxCell id="8AssvYGJsJ_mRKbQOy9S-357" value="$$I_{O,MPPT}(t)$$" style="edgeStyle=orthogonalEdgeStyle;html=1;exitX=1;exitY=0.25;exitDx=0;exitDy=0;entryX=0;entryY=0.5;entryDx=0;entryDy=0;elbow=vertical;" edge="1" parent="1" target="8AssvYGJsJ_mRKbQOy9S-356">
          <mxGeometry x="0.2121" y="20" relative="1" as="geometry">
            <mxPoint as="offset" />
            <mxPoint x="2095.94" y="740" as="sourcePoint" />
            <mxPoint x="2160.94" y="740" as="targetPoint" />
          </mxGeometry>
        </mxCell>
        <mxCell id="8AssvYGJsJ_mRKbQOy9S-358" value="&lt;span style=&quot;color: rgb(240, 240, 240); font-family: Helvetica; font-size: 11px; font-style: normal; font-variant-ligatures: normal; font-variant-caps: normal; font-weight: 400; letter-spacing: normal; orphans: 2; text-align: center; text-indent: 0px; text-transform: none; widows: 2; word-spacing: 0px; -webkit-text-stroke-width: 0px; background-color: rgb(24, 20, 29); text-decoration-thickness: initial; text-decoration-style: initial; text-decoration-color: initial; float: none; display: inline !important;&quot;&gt;$$V_{BAT}(t)$$&lt;/span&gt;" style="text;whiteSpace=wrap;html=1;" vertex="1" parent="1">
          <mxGeometry x="2345.9399999999996" y="733" width="110" height="40" as="geometry" />
        </mxCell>
        <mxCell id="8AssvYGJsJ_mRKbQOy9S-359" value="" style="shape=flexArrow;endArrow=classic;html=1;rounded=0;" edge="1" parent="1">
          <mxGeometry width="50" height="50" relative="1" as="geometry">
            <mxPoint x="1780" y="570" as="sourcePoint" />
            <mxPoint x="1910" y="670" as="targetPoint" />
          </mxGeometry>
        </mxCell>
        <mxCell id="8AssvYGJsJ_mRKbQOy9S-360" value="31/01/24" style="text;html=1;align=center;verticalAlign=middle;resizable=0;points=[];autosize=1;strokeColor=none;fillColor=none;" vertex="1" parent="1">
          <mxGeometry x="1539.97" y="130" width="70" height="30" as="geometry" />
        </mxCell>
      </root>
    </mxGraphModel>
  </diagram>
</mxfile>
